<?xml version="1.0" standalone="no"?>
<!DOCTYPE svg PUBLIC "-//W3C//DTD SVG 1.1//EN" "http://www.w3.org/Graphics/SVG/1.1/DTD/svg11.dtd" >
<svg xmlns="http://www.w3.org/2000/svg" xmlns:xlink="http://www.w3.org/1999/xlink" version="1.1">
<metadata>
Created by FontForge 20170924 at Fri Jan  1 00:00:00 1904
 By www-data
Copyright 1992, Free Programmers Software, All Rights Reserved
</metadata>
<defs>
<font id="CourierNew" horiz-adv-x="2683" >
  <font-face 
    font-family="Courier New"
    font-weight="400"
    font-stretch="normal"
    units-per-em="4096"
    panose-1="2 2 114 0 0 0 0 0 0 0"
    ascent="3276"
    descent="-820"
    x-height="1999"
    cap-height="2560"
    bbox="0 -1151 2679 3478"
    underline-thickness="80"
    underline-position="-160"
    unicode-range="U+0020-2219"
  />
<missing-glyph horiz-adv-x="3072" 
d="M512 0v2560h2048v-2560h-2048zM2497 63v2434h-1922v-2434h1922z" />
    <glyph glyph-name=".notdef" horiz-adv-x="3072" 
d="M512 0v2560h2048v-2560h-2048zM2497 63v2434h-1922v-2434h1922z" />
    <glyph glyph-name=".null" 
 />
    <glyph glyph-name="nonmarkingreturn" 
 />
    <glyph glyph-name="space" unicode=" " 
 />
    <glyph glyph-name="exclam" unicode="!" 
d="M1090 2449l-5 13q0 172 185 172h123q196 0 196 -176v-4l-73 -1463v-12q0 -119 -119 -119h-115q-123 0 -123 115l4 16zM1425 0h-172q-114 0 -213 78q-98 78 -98 188v111q0 106 98 190q99 84 205 84h180q111 0 211 -82q101 -82 101 -192v-107q0 -110 -99 -190
q-98 -80 -213 -80z" />
    <glyph glyph-name="quotedbl" unicode="&#x22;" 
d="M1892 2560h4q103 0 103 -106l-53 -803v-9q0 -155 -119 -155h-164q-90 4 -102 164l-58 803q0 106 107 106h282zM786 2560h283q107 0 107 -106l-58 -803q-12 -160 -102 -164h-164q-123 0 -123 155l4 9l-57 803q0 106 102 106h8z" />
    <glyph glyph-name="numbersign" unicode="#" 
d="M1495 1094l21 516h-312l-33 -516h324zM1085 2974h91q86 0 86 -135l-45 -930h315l53 930q0 135 86 135h86q90 0 90 -135l-41 -930h303q95 0 95 -90v-103q0 -102 -95 -102h-315l-29 -520h344q95 0 95 -90v-103q0 -102 -95 -102h-368l-53 -930q0 -131 -78 -131h-103
q-90 0 -90 139l53 922h-311l-57 -922q0 -139 -82 -139h-102q-87 0 -87 139l66 922h-332q-90 0 -90 102v98q0 95 90 95h344l29 520h-373q-90 0 -90 102v103q0 90 90 90h389l41 930q0 135 90 135z" />
    <glyph glyph-name="dollar" unicode="$" 
d="M1376 2945h103q90 0 90 -127v-221q98 -17 299 -111q0 74 94 74h78q86 0 86 -94v-422q0 -90 -74 -90h-131q-82 0 -82 90q-37 168 -176 223t-320 60q-167 0 -319 -95q-152 -94 -152 -250v-32q0 -99 94.5 -178.5t229.5 -137.5q-94 35 -94 37v0q8 0 282 -94
q447 -152 574 -246q127 -74 196 -227q70 -154 70 -309v-13q0 -245 -131 -389q-131 -143 -301 -196.5t-313 -53.5q-4 0 -13 4h-16l-33 -553q0 -122 -86 -122h-131q-90 0 -90 102l37 586h-12q-13 -4 -17 -4q-147 0 -327 131q0 -78 -99 -78h-98q-131 0 -131 172v344
q0 160 131 160h86q151 0 151 -213l-4 -4q0 -90 170 -150q170 -59 346 -67q74 -9 103 -9q176 0 286.5 80t127.5 244q0 106 -64 199q-63 92 -186 141q-62 24 -369 131q-270 94 -389 156q-176 90 -256 225t-84 328l-4 4q0 204 108 356q109 152 283 229q174 78 363 78l8 193
q0 139 106 139z" />
    <glyph glyph-name="percent" unicode="%" 
d="M1556 901q-155 0 -253.5 -96t-98.5 -236q0 -143 98.5 -233t274.5 -90q164 0 258 90t94 229v25q-4 139 -106.5 225t-266.5 86zM1565 1147q290 0 460 -162t170 -412v-8q0 -250 -174 -407.5t-465 -161.5h-20q-279 0 -438.5 164t-159.5 409q0 254 168 416t459 162zM1049 2478
q-156 0 -254.5 -98.5t-98.5 -233.5q0 -143 98.5 -235t274.5 -92q164 0 258 92t94 227v29q0 139 -104.5 225t-267.5 86zM1057 2720q291 0 461 -160t170 -410v-12q0 -250 -175 -407q-174 -158 -464 -158h-9q-8 -4 -12 -4q-278 0 -438 166t-160 411q0 254 168 414t459 160z
M618 946h-16q-12 -4 -16 -4q-115 0 -119 94q-4 13 -4 25q0 90 74 115l1474 602h45q90 0 107 -78q8 -12 8 -37q0 -49 -41 -90z" />
    <glyph glyph-name="ampersand" unicode="&#x26;" 
d="M1192 238q123 4 221 53t131 119l-471 663q-102 -49 -184 -172t-82 -258q0 -172 106 -291q107 -119 271 -119zM1835 2130q0 -164 -172 -172q-111 0 -139 53q-99 115 -258 115h-17q-98 0 -168 -53q-69 -54 -69 -177q0 -118 61 -204l668 -955q82 127 82 287q0 213 159 233
h164q99 0 99 -110v-135q-9 -58 -66 -66q-61 -12 -78 -41q-4 -102 -43 -229t-104 -209l131 -205h74q57 0 57 -45v-172q0 -57 -62 -57h-278l-152 172q-12 -58 -217 -135q-204 -78 -409 -78q-283 0 -477.5 182t-194.5 461q0 254 131 448q131 195 315 289q-106 143 -157 274.5
t-51 262.5q0 213 163 379q164 165 390 165q155 0 239 -20.5t170 -93.5h115q94 0 94 -164z" />
    <glyph glyph-name="quotesingle" unicode="'" 
d="M1237 2560h467q37 -4 37 -45q0 -25 -21 -66l-479 -995q-37 -78 -90 -78q-16 0 -33 8l-131 78q-41 25 -41 66q0 12 4 37l13 53v0l-5 -21l222 865q0 78 57 98z" />
    <glyph glyph-name="parenleft" unicode="(" 
d="M1667 2634h62q57 -4 57 -82q0 -74 -33 -123q-78 -127 -182 -408q-105 -280 -176 -596q-72 -315 -72 -548q0 -234 65.5 -537t167.5 -576q103 -272 197 -419q25 -66 25 -123q0 -82 -49 -94h-74q-144 53 -328 356t-311 700q-127 398 -127 705q0 319 131 722.5t317 698.5
q187 295 330 324z" />
    <glyph glyph-name="parenright" unicode=")" 
d="M926 2429q-37 57 -37 123q0 78 61 82h62q139 -25 327 -318q189 -293 322 -692t133 -719v-16q0 -307 -129 -705q-129 -397 -311.5 -700t-329.5 -356h-74q-53 12 -53 94q0 57 29 123q94 147 196 419q103 273 168 576q66 303 66 537q0 233 -72 548q-72 316 -176 596
q-104 281 -182 408z" />
    <glyph glyph-name="asterisk" unicode="*" 
d="M1507 2560l-53 -692l631 254l123 -336l-680 -164l459 -516l-295 -229l-353 602l-356 -602l-291 229l459 516l-684 164l127 336l631 -254l-54 692h336z" />
    <glyph glyph-name="plus" unicode="+" 
d="M1389 221h-103q-106 0 -106 139v840h-828q-123 0 -123 103v81q0 123 123 123h828v877q0 119 102 119h111q106 0 106 -119v-877h828q122 0 122 -123v-81q0 -103 -122 -103h-828v-840q0 -139 -110 -139z" />
    <glyph glyph-name="comma" unicode="," 
d="M1225 -618q-33 -78 -107 -78q-20 0 -37 4l-180 74q-45 24 -45 77q0 9 4 29l8 33l287 1093q0 74 66 99h548q46 0 46 -62q0 -24 -9 -57l4 4z" />
    <glyph glyph-name="hyphen" unicode="-" 
d="M2232 782h-1781q-99 0 -99 82v160q0 86 103 86h1765q107 0 107 -86v-156q0 -86 -95 -86z" />
    <glyph glyph-name="period" unicode="." 
d="M1425 721q115 -8 229.5 -100.5t114.5 -206.5v-144q0 -110 -116 -209q-117 -98 -236 -102h-155q-119 4 -236 102q-117 99 -117 209v144q0 114 115 206.5t229 100.5h172z" />
    <glyph glyph-name="slash" unicode="/" 
d="M2007 3092h70q114 0 114 -172q0 -24 -8 -49l-1417 -3043q-29 -61 -94 -61h-86l-4 4q-103 0 -103 147q0 12 4 29q13 43 13 45v-2l-4 -15l1404 3015q41 102 111 102z" />
    <glyph glyph-name="zero" unicode="0" 
d="M1339 254q172 0 291 129t178 379q60 250 60 602q0 303 -62 563q-61 260 -184 413.5t-291 153.5t-287 -153q-118 -154 -176 -414q-57 -260 -57 -563q0 -352 59 -602q60 -250 178.5 -379t290.5 -129zM1339 -53q-315 0 -512 205q-196 204 -280 534t-84 707q0 352 88 675
q88 324 286.5 527t497.5 203q312 0 510 -203q199 -203 287 -527q88 -323 88 -675v-29q0 -365 -82 -688.5t-280.5 -526t-518.5 -202.5z" />
    <glyph glyph-name="one" unicode="1" 
d="M1380 2798h74q57 0 57 -82v-2421h504q135 0 135 -111v-82q0 -102 -118 -102h-1385q-119 0 -119 98v86q0 111 136 111h516v2134l-484 -107h-12q-8 -4 -12 -4q-115 0 -115 111v65q0 78 61 91z" />
    <glyph glyph-name="two" unicode="2" 
d="M1384 2802h9q200 0 391 -95q190 -94 309 -276t119 -428v-4q0 -262 -115 -459t-192 -258l-971 -963h979l49 140q29 73 119 73h4q147 0 147 -114v-246q0 -172 -123 -172h-1515q-148 0 -148 143v95v4q0 45 58 123l1044 1032q58 41 178 209q121 168 121 360v8q0 238 -137 381
q-137 144 -334 144q-180 0 -313 -78t-186 -185q-21 -77 -25 -86q-45 -77 -168 -77q-135 0 -135 127v213q0 57 256 223t579 166z" />
    <glyph glyph-name="three" unicode="3" 
d="M1368 2798q242 0 416 -103q174 -102 262 -274t88 -373q0 -279 -121 -395.5t-325 -173.5q262 -54 405 -230t143 -438v-8q0 -271 -125 -465q-124 -195 -342 -293q-217 -98 -479 -98q-307 0 -575 104q-269 105 -269 228v102q0 98 127 98h9q90 0 143 -28q410 -205 410 -207v0
l-5 2q-8 4 -8 6q0 14 176 14q250 0 416 139.5t166 356.5q0 250 -149.5 389t-440.5 139h-41q-123 0 -123 90v99q0 102 95 102h20q12 -4 16 -4q213 0 373 114.5t160 360.5q0 148 -127 285t-315 137h-5q-188 0 -284 -47t-273 -178h-86q-106 0 -106 78v114q0 82 235 219
q236 138 527 138h12z" />
    <glyph glyph-name="four" unicode="4" 
d="M762 991h811v1458zM2154 1065q70 0 70 -61v-148q0 -188 -119 -188h-221v-373h193q118 0 118 -94v-107q0 -94 -102 -94h-840q-90 0 -90 86v102q0 107 107 107h307v373h-1049q-77 0 -77 86v254l999 1728q33 57 102 57l271 -45q61 -8 61 -57v-1704h131q29 78 111 78h28z" />
    <glyph glyph-name="five" unicode="5" 
d="M676 2720h1266q126 0 126 -90v-127q0 -103 -135 -103h-1048v-704q94 41 202 67q109 27 244 27q291 0 504 -119t319 -321q107 -203 107 -449q0 -315 -135 -532t-367 -322q-231 -104 -506 -104q-303 0 -571 96t-268 199v69q0 107 151 107q25 0 53 -4q205 -86 332 -121
t295 -39h8l9 -4q278 0 460 178q183 178 183 481q0 250 -193 422q-192 172 -414 172q-180 0 -364 -94q-49 -41 -180 -102h-99q-77 0 -77 86v1245q0 86 98 86z" />
    <glyph glyph-name="six" unicode="6" 
d="M463 1180q0 417 159.5 792t467.5 600q307 226 708 226h254q127 0 127 -127v-13q0 -143 -115 -143h-274q-201 0 -406 -121q-204 -121 -356 -364q-151 -244 -197 -576l25 -8q86 127 239.5 205t297.5 78q274 0 458 -127q185 -127 271 -336t86 -451q0 -229 -92.5 -428
t-278.5 -319.5t-448 -120.5h-5q-319 0 -528 178t-301 458.5t-92 596.5zM1376 1417q-254 0 -387 -168t-133 -393q0 -238 141 -420q142 -182 392 -182q229 0 350 164t121 385q0 241 -121 427.5t-363 186.5z" />
    <glyph glyph-name="seven" unicode="7" 
d="M1090 -41q-74 0 -74 66v12l860 2363h-1102l-8 -119q-12 -77 -143 -77q-144 0 -144 102v12l33 303q8 99 98 99h1524q86 0 86 -107q0 -61 -25 -147l-811 -2429q-16 -78 -57 -78h-237z" />
    <glyph glyph-name="eight" unicode="8" 
d="M848 2019q0 -229 139 -356t340 -127l12 4q201 0 346.5 127t145.5 352q0 213 -135 338t-357 125h-12q-217 0 -348 -125t-131 -338zM2216 750q0 -238 -115 -422q-114 -185 -317 -283t-445 -98q-245 0 -448 98t-316 281q-112 182 -112 424q0 233 133 419q133 187 330 215v25
q-176 70 -305 199t-134 411q0 209 117 389q117 181 314 285q196 105 417 105h8q222 0 418 -105q197 -104 314 -285q116 -180 116 -389q0 -282 -131 -411t-307 -199v-25q197 -28 330 -213q133 -184 133 -421zM1339 1237h-12q-209 0 -360.5 -127t-151.5 -369
q0 -241 151.5 -364t372.5 -123q217 0 371 123t154 364q0 246 -156 371t-369 125z" />
    <glyph glyph-name="nine" unicode="9" 
d="M1303 1315q253 0 384.5 168t131.5 397q0 238 -140 420q-139 182 -393 182q-225 0 -346 -166t-121 -387q0 -241 123 -428q123 -186 361 -186zM627 -61q-127 0 -127 122l-4 9q0 147 118 147h267l4 -4q200 0 405 123t359 366q153 244 198 580l-24 4q-90 -127 -244 -205
q-154 -77 -297 -77q-270 0 -455 126q-184 127 -272 338t-88 449q0 229 92 430t278.5 321.5t448.5 120.5q324 0 533 -176t301 -456.5t92 -600.5q0 -421 -160 -796t-465 -598t-710 -223h-250z" />
    <glyph glyph-name="colon" unicode=":" 
d="M1253 1159q-118 4 -235 102.5t-117 208.5v140q0 114 114.5 206.5t229.5 100.5h172q115 -8 229.5 -100.5t114.5 -206.5v-140q0 -110 -116.5 -208.5t-235.5 -102.5h-156zM909 270v144q0 114 115 206.5t229 100.5h172q115 -8 229.5 -100.5t114.5 -206.5v-144
q0 -110 -116 -209q-117 -98 -236 -102h-155q-119 4 -236 102q-117 99 -117 209z" />
    <glyph glyph-name="semicolon" unicode=";" 
d="M1409 1159h-156q-118 4 -235 102.5t-117 208.5v140q0 114 114.5 206.5t229.5 100.5h172q115 -8 229.5 -100.5t114.5 -206.5v-140q0 -110 -116.5 -208.5t-235.5 -102.5zM1761 520l-549 -1143q-24 -65 -98 -65h-37l4 -4l-180 74q-41 12 -41 61q0 12 4 33q8 32 8 37
l267 1019q24 107 86 107h491q49 0 49 -57q0 -29 -8 -66z" />
    <glyph glyph-name="less" unicode="&#x3c;" 
d="M2294 2408h78q90 0 90 -86v-86q0 -65 -62 -94l-1630 -778l1618 -786q74 -29 74 -91v-102q0 -90 -95 -90h-86l-69 12l4 4l-1954 926q-45 41 -45 66v114q0 62 62 82l1953 901q4 0 62 8z" />
    <glyph glyph-name="equal" unicode="=" 
d="M2437 1049v-115q0 -103 -86 -103h-2023q-90 0 -90 103v115q0 106 90 106h2023q86 0 86 -106zM328 1880h2023q86 0 86 -102v-119q0 -103 -86 -103h-2023q-90 0 -90 103v119q0 102 90 102z" />
    <glyph glyph-name="greater" unicode="&#x3e;" 
d="M446 2400l1954 -901q62 -20 62 -82v-114q0 -25 -49 -66l-1950 -926v-4l-66 -12h-86q-94 0 -94 90v102q0 62 74 91l1618 786l-1630 778q-62 29 -62 94v86q0 86 90 86h78q57 -8 61 -8z" />
    <glyph glyph-name="question" unicode="?" 
d="M1167 0q-159 0 -270 71.5t-111 243.5q0 160 115 231.5t258 71.5h17q188 0 300.5 -77.5t112.5 -237.5q0 -156 -127 -229.5t-295 -73.5zM1819 1360q-54 -33 -279 -123q-197 -78 -197 -98v-189q0 -119 -98 -119h-119q-102 0 -102 103v233q0 111 111 185q61 49 192 102
q164 66 209 90q123 70 196.5 158t73.5 194v13q-8 196 -170 313q-161 117 -366 117q-123 0 -275 -39q-151 -39 -151 -109v-90q0 -131 -119 -131h-70q-118 0 -118 119v311q0 29 57 70q102 78 307 121t381 43h21q229 0 421 -84q193 -84 307.5 -252t114.5 -402q0 -167 -84 -303
q-84 -135 -243 -233z" />
    <glyph glyph-name="at" unicode="@" 
d="M2077 2191v-1155l69 -106q13 -17 13 -49q0 -62 -58 -140q-61 -57 -123 -57q-49 0 -86 37l-82 78q-36 -45 -319 -74h-25q-16 -4 -24 -4q-197 0 -328 174t-131 416q0 291 172 495q172 205 434 205h193q0 270 -78 471t-303 201q-217 0 -350 -211t-189 -512
q-55 -301 -55 -571l4 -17q4 -323 57 -614q54 -291 207 -496q154 -205 424 -217l4 -4q226 0 369 90h20q95 0 123 -98q-33 -139 -86 -164q-123 -57 -215 -80q-92 -22 -178 -22h-37q-397 20 -614 257.5t-287 581.5t-70 762q0 385 70 739q70 355 266 596q197 242 545 242
q229 0 381 -104.5t219 -276.5q68 -172 68 -373zM1602 1761q-119 0 -228 -112q-108 -113 -108 -289l4 -45q8 -139 76 -234q67 -94 153 -94q8 0 24.5 4t20.5 4q238 0 238 58v708h-180z" />
    <glyph glyph-name="A" unicode="A" 
d="M1307 2269l-418 -1159h872zM795 815l-193 -520h316q135 0 135 -102v-82q0 -111 -135 -111h-799q-119 0 -119 111v82q0 102 119 102h147l725 1970h-397q-148 0 -148 107v82q0 106 148 106h852q110 0 156 -152l852 -2113h118q103 0 103 -98v-91q0 -106 -103 -106h-819
q-111 61 -111 106v82q0 107 115 107h320l-209 520h-1073z" />
    <glyph glyph-name="B" unicode="B" 
d="M1991 1372v-24q213 -29 350 -207t137 -400v-12q0 -201 -92 -356.5t-262 -251.5t-383 -121h-1422q-110 0 -110 111v82q0 102 110 102h222v1970h-222q-110 0 -110 107v82q0 106 110 106h1283q282 0 493 -195q211 -194 211 -481q0 -164 -76 -305t-239 -207zM881 2265v-799
h618q168 0 299 125t131 289q0 156 -114 270q-115 115 -271 115h-663zM1593 295q222 12 361 112.5t139 325.5q0 185 -135 311q-135 127 -316 127h-761v-876h712z" />
    <glyph glyph-name="C" unicode="C" 
d="M2171 1671q-156 0 -156 209q0 188 -155.5 323.5t-434.5 135.5q-258 0 -442 -141.5t-278 -387.5q-95 -245 -95 -544q0 -258 106.5 -498t299 -385t426.5 -145q184 0 382.5 86t321.5 192q70 49 144 49h16q131 0 139 -106v-8q0 -86 -24 -95q-140 -180 -428 -295
q-289 -114 -568 -114h-8q-360 0 -633 178q-272 178 -413 485q-142 308 -142 668q0 356 145.5 669.5t420.5 499.5q274 187 639 187q184 0 323 -23q139 -22 275 -108q8 -4 12 -4q16 0 16 12q13 94 111 94h94q123 0 123 -147v-693q0 -94 -119 -94h-86h-12z" />
    <glyph glyph-name="D" unicode="D" 
d="M1339 295q238 12 412 143t266 350q92 220 92 494v12q0 254 -86 471t-260 352.5t-424 147.5h-532v-1970h532zM319 2560h1061q336 -12 584 -184t373 -449q125 -276 125 -592v-8q0 -385 -129 -682t-379 -465t-586 -180h-1049q-102 0 -102 111v82q0 102 102 102h148v1970
h-148q-102 0 -102 102v87q0 106 102 106z" />
    <glyph glyph-name="E" unicode="E" 
d="M238 106v82q0 107 118 107h283v1970h-291q-110 0 -110 107v82q0 106 110 106h1987q102 0 102 -102v-652q0 -114 -102 -114h-103q-102 0 -102 118v455h-1155v-741h561v205q0 122 98 122h90q91 0 91 -122v-680q0 -115 -91 -115h-110q-78 0 -78 115v213h-561v-967h1155v491
q0 115 119 115h82q106 0 106 -110v-701q0 -90 -102 -90h-1979q-118 0 -118 106z" />
    <glyph glyph-name="F" unicode="F" 
d="M348 2560h2003q94 0 94 -102v-656q0 -110 -114 -110h-90q-103 0 -103 114v459h-1167v-741h557v213q0 114 86 114h94q86 0 86 -110v-692q0 -115 -94 -115h-86q-86 0 -86 115v213h-557v-967h516q102 0 102 -98v-95q0 -102 -102 -102h-1143q-115 0 -115 106v95l-4 4
q0 90 127 90h279v1970h-279q-123 0 -123 102v95q0 98 119 98z" />
    <glyph glyph-name="G" unicode="G" 
d="M1950 1974q-37 127 -199 244t-358 117h-41q-295 0 -478 -144q-182 -143 -260 -385q-77 -241 -77 -544q0 -324 131 -562q131 -237 344 -356t446 -119q144 0 262 37q119 37 279 119v508h-549q-107 0 -107 94v94q0 103 103 103h962q119 0 119 -103v-90q0 -98 -114 -98h-78
v-725q0 -37 -289 -127t-567 -90h-62q-401 0 -686 163.5t-430 467t-145 696.5q0 360 139 673.5t405 497.5q267 185 623 185h37q164 0 321 -29q158 -29 277 -102q8 -5 12 -5q17 0 17 17q12 90 110 90h94q115 0 115 -147v-545q0 -115 -102 -115h-111q-94 0 -143 180z" />
    <glyph glyph-name="H" unicode="H" 
d="M1860 1200h-1041v-905h262q111 0 111 -107v-82q0 -106 -111 -106h-741q-111 0 -111 106v82q0 107 111 107h139v1970h-139q-111 0 -111 107v82q0 106 111 106h741q111 0 111 -106v-82q0 -107 -111 -107h-262v-774h1041v774h-267q-106 0 -106 107v82q0 106 106 106h746
q110 0 110 -106v-82q0 -107 -110 -107h-139v-1970h139q110 0 110 -107v-82q0 -106 -110 -106h-746q-106 0 -106 106v82q0 107 106 107h267v905z" />
    <glyph glyph-name="I" unicode="I" 
d="M2142 0h-1601q-111 0 -111 106v82q0 107 111 107h630v1970h-630q-111 0 -111 107v82q0 106 111 106h1601q107 0 107 -106v-82q0 -107 -111 -107h-631v-1970h631q111 0 111 -107v-82q0 -106 -107 -106z" />
    <glyph glyph-name="J" unicode="J" 
d="M1028 -53q-233 0 -534 98t-301 205v4v766q0 74 73 74h131q90 0 90 -131v-238q0 -213 166 -358.5t379 -145.5h8q279 0 426 150q148 149 148 395v8l-4 1491h-729q-111 0 -111 107v82q0 106 111 106h1495q106 0 106 -106v-82q0 -107 -110 -107h-422v-1589q0 -221 -103 -387
q-102 -166 -305 -254t-481 -88h-33z" />
    <glyph glyph-name="K" unicode="K" 
d="M2097 0q-94 0 -131 139l-295 537q-143 254 -260 377t-301 147l-233 -237v-668h262q110 0 110 -107v-82q0 -106 -102 -106h-877q-110 0 -110 102v82q0 111 106 111h275v1970h-275q-110 0 -110 107v82q0 106 110 106h873q110 0 110 -106v-82q0 -107 -106 -107h-266v-893
l897 893h-164q-111 0 -111 107v82q0 106 111 106h725q110 0 110 -106v-82q0 -107 -110 -107h-140l-843 -823q135 -21 280 -150q146 -129 223 -280l410 -717h143q111 0 111 -107v-82q0 -106 -106 -106h-316z" />
    <glyph glyph-name="L" unicode="L" 
d="M2191 1012q0 110 99 110h106q103 0 103 -106v-914q0 -102 -103 -102h-2113q-107 0 -107 106v82q0 107 111 107h409v1970h-409q-111 0 -111 107v82q0 106 107 106h1269q103 0 103 -106v-82q0 -107 -111 -107h-508v-1970h1155v717z" />
    <glyph glyph-name="M" unicode="M" 
d="M254 2560h508q86 0 147 -172l451 -1344l450 1364q50 152 148 152h528q107 0 107 -102v-82q0 -111 -119 -111h-119v-1970h172q111 0 111 -107v-82q0 -106 -111 -106h-741q-107 0 -107 102v82q0 111 107 111h233v1835l-458 -1245q0 -123 -131 -123h-152q-139 0 -139 123
l-480 1261v-1851h275q110 0 110 -111v-82q0 -102 -106 -102h-791q-106 0 -106 102v82q0 111 106 111h177v1970h-119q-111 0 -111 107v82q0 106 111 106h49z" />
    <glyph glyph-name="N" unicode="N" 
d="M238 2560h544q74 0 119 -82l1110 -1929v1716h-323q-136 0 -136 107v86q0 102 119 102h770q115 0 115 -98v-90q0 -107 -123 -107h-127v-2245q0 -49 -53 -49h-242l-1229 2102v-1778h373q119 0 119 -90v-94q0 -111 -119 -111h-811q-119 0 -119 102v95q0 98 119 98h143v1970
h-245q-123 0 -123 107v90q0 98 119 98z" />
    <glyph glyph-name="O" unicode="O" 
d="M1339 238q246 0 424 118q179 119 269 358.5t90 579.5q0 287 -78 524.5t-256 381t-449 143.5q-270 0 -448 -143.5t-260 -383t-82 -522.5q0 -340 92 -577.5t270 -358.5q179 -120 428 -120zM1339 -53q-360 0 -628.5 180t-407.5 489q-139 310 -139 674q0 332 123 641
q123 310 389 506q266 197 663 197q402 0 666 -197q264 -196 385 -506q121 -309 121 -641q0 -368 -137 -676q-138 -307 -404 -487t-631 -180z" />
    <glyph glyph-name="P" unicode="P" 
d="M1573 963h-574v-668h512q119 0 119 -90v-103q0 -102 -114 -102h-1168q-119 0 -119 98v99q0 98 115 98h320v1970h-312q-127 0 -127 86l4 8v103q0 98 119 98h1225q217 0 424 -100.5t332 -282.5t125 -403q0 -226 -125 -414.5t-330 -292.5t-426 -104zM1556 1262
q201 0 355 149q153 150 153 350q0 201 -153.5 352.5t-354.5 151.5h-557v-1003h557z" />
    <glyph glyph-name="Q" unicode="Q" 
d="M1343 2343q-270 0 -448 -143.5t-258 -383t-80 -522.5q0 -340 90 -579.5t268 -358.5q179 -118 424 -118q246 0 422 118q176 119 266.5 358.5t90.5 579.5q0 287 -78 524.5t-252 381t-445 143.5zM2511 1282v-33q0 -348 -137.5 -647t-403.5 -477t-627 -178h-151l-209 -209
q102 37 234 61q131 25 229 25q90 0 295 -53q205 -50 270 -50h25q45 0 114 37q70 37 86 37h82q103 0 103 -114q0 -132 -127 -185t-287 -53q-115 0 -360 70q-250 69 -373 69q-119 0 -303 -82q-185 -78 -209 -78h-12q-95 46 -111 99q-21 8 -21 65q0 41 25 54l344 352
q-127 12 -323.5 157.5t-348.5 434.5q-151 288 -151 698q0 340 121 649q121 310 389 506q268 197 669 197q402 0 666 -197q264 -196 383 -506q119 -309 119 -649z" />
    <glyph glyph-name="R" unicode="R" 
d="M1872 1831q0 172 -135 303t-307 131h-599v-876h570q184 0 327.5 126.5t143.5 315.5zM217 2560h1274q192 0 368.5 -98.5t280.5 -266.5q105 -167 105 -360q0 -287 -154 -457t-453 -231q82 -12 181 -172l479 -680h151q123 0 123 -90v-99q0 -106 -123 -106h-319
q-74 0 -193 184l-421 627q-78 119 -166 201t-174 82h-349v-799h242q127 0 127 -94v-95q0 -106 -127 -106h-848q-115 0 -115 102v86q0 107 119 107h262v1970h-262q-119 0 -119 102v91q0 102 111 102z" />
    <glyph glyph-name="S" unicode="S" 
d="M1999 684v33q0 127 -84 231q-84 105 -236 129l-684 123q-303 53 -450.5 219t-147.5 428q0 238 131 418t340 274.5t430 94.5h41q156 0 299 -25q144 -24 267 -98q0 106 77 106h127q111 0 111 -118l25 -582q0 -98 -74 -98h-131q-41 0 -119 127q-70 249 -229.5 317t-348.5 72
h-20q-221 0 -393 -123t-172 -328q0 -131 82 -229.5t217 -118.5l712 -115q259 -37 420 -217q162 -180 162 -450v-9q0 -299 -149.5 -479t-376.5 -250q-228 -69 -482 -69q-167 0 -339.5 41t-278.5 114q-4 -172 -102 -172h-160q-103 0 -103 172l-28 582l-4 12q0 176 147 176h90
q103 0 111 -135q16 -196 223 -352t494 -156q241 0 423.5 98.5t182.5 356.5z" />
    <glyph glyph-name="T" unicode="T" 
d="M238 2458q0 102 90 102h2023q90 0 90 -102l25 -906q0 -114 -115 -114h-82q-119 0 -119 114l-20 713h-623v-1970h484q110 0 110 -107v-82q0 -106 -102 -106h-1319q-102 0 -102 106v82q0 107 110 107h483v1970h-622l-21 -713q0 -114 -118 -114h-82q-115 0 -115 114z" />
    <glyph glyph-name="U" unicode="U" 
d="M1339 238q226 0 408 170t182 387v1470h-274q-111 0 -111 107v82q0 106 111 106h753q111 0 111 -106v-82q0 -107 -111 -107h-139v-1474q0 -222 -100.5 -416.5t-300.5 -311.5q-201 -116 -471 -116h-115q-270 0 -469 116q-199 117 -301 313.5t-102 414.5v1474h-144
q-110 0 -110 107v82q0 106 110 106h758q111 0 111 -106v-82q0 -107 -111 -107h-274v-1470q0 -217 182 -387t407 -170z" />
    <glyph glyph-name="V" unicode="V" 
d="M1339 356l717 1909h-319q-111 0 -111 107v82q0 106 111 106h786q111 0 111 -106v-82q0 -107 -111 -107h-102l-856 -2228q-33 -90 -135 -90h-181q-102 0 -135 90l-856 2228h-102q-111 0 -111 107v82q0 106 111 106h786q111 0 111 -106v-82q0 -107 -111 -107h-319z" />
    <glyph glyph-name="W" unicode="W" 
d="M913 74q-16 -74 -65 -74h-242q-53 0 -65 74l-320 2191h-78q-110 0 -110 111v82q0 102 106 102h807q107 0 107 -106v-82q0 -107 -111 -107h-389l233 -1700l369 1295q0 94 111 94h147q111 0 111 -94l368 -1295l234 1700h-389q-111 0 -111 107v82q0 106 107 106h807
q106 0 106 -102v-82q0 -111 -111 -111h-77l-320 -2191q-12 -74 -65 -74h-242q-45 0 -66 74l-426 1482z" />
    <glyph glyph-name="X" unicode="X" 
d="M1339 1065l-548 -770h221q106 0 106 -111v-82q0 -102 -106 -102h-705q-106 0 -106 111v82q0 102 106 102h66l745 1012l-692 958h-57q-111 0 -111 115v82q0 98 111 98h622q111 0 111 -102v-82q0 -111 -111 -111h-143l491 -700l492 700h-143q-111 0 -111 111v82
q0 102 111 102h618q111 0 111 -98v-82q0 -115 -111 -115h-53l-692 -958l745 -1012h66q106 0 106 -102v-82q0 -111 -106 -111h-705q-106 0 -106 102v82q0 111 106 111h221z" />
    <glyph glyph-name="Y" unicode="Y" 
d="M696 0q-110 0 -110 102v82q0 111 106 111h471v725l-721 1241h-147q-115 0 -115 111v82q0 106 111 106h745q111 0 111 -111v-82q0 -106 -111 -106h-205l529 -946l487 946h-205q-110 0 -110 106v82q0 111 110 111h746q111 0 111 -106v-82q0 -111 -115 -111h-148l-720 -1241
v-725h471q106 0 106 -111v-82q0 -102 -111 -102h-1286z" />
    <glyph glyph-name="Z" unicode="Z" 
d="M668 2560h1409q151 0 151 -156v-16q0 -49 -20 -111l-1331 -1982h995l24 647q0 123 119 123h78q119 0 119 -143l-33 -799q0 -123 -102 -123h-1479q-152 0 -152 156q0 102 25 159l1319 1950h-913l-25 -590q0 -119 -78 -119h-143q-86 0 -86 123l20 754q0 127 103 127z" />
    <glyph glyph-name="bracketleft" unicode="[" 
d="M1008 2560h675q91 0 91 -74v-102q0 -86 -91 -86h-409v-2830h409q91 0 91 -86v-103q0 -74 -91 -74h-675q-103 0 -103 103v3150q0 102 103 102z" />
    <glyph glyph-name="backslash" unicode="\" 
d="M602 3092h66q73 0 114 -102l1405 -3015q8 -32 8 -57q0 -147 -102 -147v-4h-90q-61 0 -90 61l-1417 3043q-13 37 -13 49q0 172 119 172z" />
    <glyph glyph-name="bracketright" unicode="]" 
d="M1774 2458v-3150q0 -103 -103 -103h-676q-90 0 -90 74v103q0 86 90 86h410v2830h-410q-90 0 -90 86v102q0 74 90 74h676q103 0 103 -102z" />
    <glyph glyph-name="asciicircum" unicode="^" 
d="M717 1987h-70q-57 4 -74 61q-8 12 -8 45q0 45 33 98l590 750q37 49 94 49h115q57 0 90 -49l594 -750q28 -53 28 -98q0 -33 -8 -45q-12 -57 -69 -61h-70l-623 622z" />
    <glyph glyph-name="underscore" unicode="_" 
d="M0 0h2679v-352h-2679v352z" />
    <glyph glyph-name="grave" unicode="`" 
d="M1495 1581q0 -86 -53 -98h-467q-41 4 -41 37q0 28 24 69l480 1000q37 73 86 73q16 0 37 -8l131 -74q37 -20 37 -69q0 -21 -9 -70z" />
    <glyph glyph-name="a" unicode="a" 
d="M594 618q0 -159 137 -251.5t305 -92.5q185 0 424 119q240 119 289 303v279q-180 74 -365 74h-98q-270 0 -481 -97q-211 -96 -211 -334zM1786 254l-25 25q-237 -205 -401 -263q-164 -57 -397 -57h-41q-312 0 -506 182q-195 183 -195 473v9q0 155 84 317t311 277
q228 114 617 114q123 0 321 -24q199 -25 199 -37v86q0 221 -156 313q-155 92 -315 92h-8q-213 0 -389 -90t-258 -90q-123 0 -148 102q-12 25 -12 62q0 57 37 98q176 127 346 162t407 35h58q254 0 430 -76t262 -217t86 -326v-1097h242q110 0 110 -103v-110q0 -111 -110 -111
h-434q-119 0 -119 168z" />
    <glyph glyph-name="b" unicode="b" 
d="M1466 274q287 0 481.5 201t198.5 500v8q0 197 -78 367q-77 170 -231 270t-362 100q-185 0 -338.5 -86t-243.5 -252q-90 -165 -90 -387v-16q0 -315 180 -510t471 -195h12zM274 2826h455q70 0 70 -78v-1003l20 -12q90 127 241.5 217t377.5 90h57q303 0 537 -144
q233 -143 356 -385q123 -241 123 -516q0 -303 -133 -542.5t-367 -368.5q-233 -129 -520 -129q-242 0 -432.5 92t-235.5 219l-20 -12v-193q0 -61 -58 -61h-471q-110 0 -110 106v82q0 107 102 107h197v2236h-184q-115 0 -115 111v82q0 102 110 102z" />
    <glyph glyph-name="c" unicode="c" 
d="M2154 618q5 0 33 5q33 4 58 4q82 0 118 -62q25 -24 25 -73q0 -62 -66 -156q-127 -135 -380.5 -256t-602.5 -121q-274 0 -518 125q-243 125 -389 358q-145 234 -145 537q0 287 123 530q122 244 366 387q244 144 580 144q184 0 341.5 -35t346.5 -141v49q0 98 123 98h86
q119 0 119 -131v-573q0 -107 -86 -107h-144q-57 0 -82 82q-114 205 -266 319.5t-401 114.5q-201 0 -371 -94t-268.5 -260t-98.5 -367q0 -184 88 -352t252 -266t369 -98q201 0 381 73q180 74 348 238z" />
    <glyph glyph-name="d" unicode="d" 
d="M1880 979v25q0 225 -90 388.5t-246 245.5q-155 82 -340 82q-209 0 -360.5 -96t-231.5 -268t-80 -381q0 -303 184.5 -502t475.5 -199q295 0 489 197q195 197 199 508zM2216 2748v-2453h192q103 0 103 -107v-82q0 -106 -107 -106h-495q-58 0 -58 61v193l-20 12
q-82 -114 -262 -213q-180 -98 -434 -98q-287 0 -508 129t-342 366.5t-121 544.5q0 279 127 518q127 240 371 383q243 144 575 144q225 0 378.5 -90t244.5 -217l20 12v786h-291q-114 0 -114 111v82q0 102 110 102h561q70 0 70 -78z" />
    <glyph glyph-name="e" unicode="e" 
d="M1327 -41h-41q-254 0 -491.5 92t-393.5 322q-155 229 -155 602q0 274 108 518q109 244 361 395q252 152 641 152q405 0 647 -168t334 -371t92 -317v-160q0 -135 -143 -135h-1672v-37q0 -78 43 -209t213 -256t502 -125q209 0 496 131q291 131 409 131h25q115 -4 115 -106
v-62q0 -90 -111 -147q-328 -172 -512 -211t-467 -39zM2032 1184v49q0 151 -179 332q-178 180 -469 180h-12q-393 0 -567 -199q-174 -198 -174 -321v-41h1401z" />
    <glyph glyph-name="f" unicode="f" 
d="M487 1999h410v250q0 225 129 354t340 178t477 49q201 0 328 -43t127 -116v-66q0 -123 -131 -123q-8 4 -13 4q-16 0 -200 25q-189 20 -230 20h-32q-193 0 -324 -73.5t-131 -237.5v-221h831q111 0 111 -107v-86q0 -106 -111 -106h-819v-1405h779q106 0 106 -111v-82
q0 -102 -106 -102h-1541q-110 0 -110 106v82q0 107 110 107h422v1405h-426q-106 0 -106 110v86q0 103 110 103z" />
    <glyph glyph-name="g" unicode="g" 
d="M1831 1065q0 303 -166 463t-485 160h-9q-286 0 -448 -177q-162 -176 -162 -479q0 -270 176 -450.5t455 -180.5q274 0 456.5 160t182.5 492v12zM1167 -856h-135q-151 0 -250 43q-98 43 -102 170q0 135 205 135q57 0 217 -16q160 -13 176 -13h25q229 0 374 160
q146 160 146 361v372l-29 17q-94 -127 -248 -209q-153 -82 -395 -82q-270 0 -479 118.5t-322 334.5q-112 215 -112 485q0 332 127 555t340 325.5t458 102.5q226 0 389 -72q164 -71 238 -174l33 37v148q0 53 49 57h455q110 0 110 -103v-86q0 -106 -102 -106h-193v-1843
q0 -234 -133 -398q-133 -163 -358.5 -241t-483.5 -78z" />
    <glyph glyph-name="h" unicode="h" 
d="M319 2826h459q66 0 66 -57v-1008h12q0 29 196.5 154t401.5 125h8q328 0 520 -197q193 -196 193 -467v-1081h184q111 0 111 -107v-90q0 -98 -107 -98h-700q-111 0 -111 106v91q0 98 115 98h164v1036q0 131 -123 258t-315 127h-9q-192 -4 -366 -153.5t-174 -255.5v-1012
h188q107 0 107 -111v-82q0 -102 -111 -102h-709q-110 0 -110 102v82q0 111 110 111h185v2236h-180q-115 0 -115 103v82q0 110 110 110z" />
    <glyph glyph-name="i" unicode="i" 
d="M1421 1999q70 0 70 -86v-1618h754q106 0 106 -102v-87q0 -106 -106 -106h-1807q-110 0 -110 102v95q0 98 110 98h717v1405h-483q-107 0 -107 110v95q0 45 107 94h749zM1221 2974h192q123 0 123 -148v-258q0 -155 -119 -155h-213q-123 0 -123 147v266q0 148 140 148z" />
    <glyph glyph-name="j" unicode="j" 
d="M725 1999h1249q111 0 111 -103v-1949q0 -332 -176 -510t-402 -234q-225 -55 -430 -55q-237 0 -350 49t-113 160q0 139 209 139q74 0 188.5 -16.5t159.5 -16.5h29q258 0 403.5 156t145.5 365v1716h-1024q-131 0 -131 110v86q0 103 131 103zM1937 2826v-258
q0 -155 -118 -155h-213q-119 0 -119 147v266q0 148 135 148h193q122 0 122 -148z" />
    <glyph glyph-name="k" unicode="k" 
d="M295 2826h541q65 0 65 -69v-1577l623 532q-135 0 -135 103v81q0 103 110 103h717q102 0 102 -107v-86q0 -106 -110 -106h-107q-98 0 -225 -70q-195 -106 -195 -110v0q5 0 80 36l-434 -372l815 -889h250q111 0 111 -107v-82q0 -106 -111 -106h-721q-102 0 -102 90v74
q0 61 82 102q65 35 75 35q3 0 3 -2l-635 688l-193 -172v-696q0 -119 -98 -119h-496q-110 0 -110 102v82q0 111 110 111h258v2236h-270q-111 0 -111 107v82q0 106 111 106z" />
    <glyph glyph-name="l" unicode="l" 
d="M578 2826h847q62 0 62 -57v-2474h717q106 0 106 -107v-82q0 -106 -106 -106h-1733q-111 0 -111 106v82q0 107 111 107h680v2236h-573q-111 0 -111 111v82q0 102 111 102z" />
    <glyph glyph-name="m" unicode="m" 
d="M1446 1794q82 143 190 195q109 51 260 51q336 0 434.5 -170t106.5 -367v-1208h139q103 0 103 -102v-82q0 -111 -107 -111h-323q-131 0 -131 135v1299q0 94 -76 196q-76 103 -199 103q-131 0 -219 -103q-88 -102 -88 -180v-1155h156q106 0 106 -107v-82q0 -106 -102 -106
h-410q-86 0 -86 119v1315q0 94 -76 196q-75 103 -198 103q-131 0 -217 -103q-86 -102 -86 -180v-1155h168q110 0 110 -107v-82q0 -106 -110 -106h-680q-111 0 -111 106v82q0 107 111 107h172v1405h-168q-115 0 -115 110v86q0 103 111 103h454q58 0 58 -62l-9 -57l21 -4
q45 66 135 115t250 49q184 0 280 -70q97 -69 125 -180z" />
    <glyph glyph-name="n" unicode="n" 
d="M1393 1716q-176 0 -355 -131q-178 -131 -194 -319v-971h184q111 0 111 -107v-82q0 -106 -111 -106h-709q-110 0 -110 106v82q0 107 110 107h185v1409h-160q-135 0 -135 119v73q0 103 119 103h454q49 -4 62 -62v-159l16 -21q119 144 275 207q155 64 327 64q320 0 516 -191
q197 -190 197 -453v-4v-1085h188q107 0 107 -102v-82q0 -111 -111 -111h-692q-115 0 -115 106v82q0 107 111 107h168v995q0 189 -127 307q-127 119 -311 119z" />
    <glyph glyph-name="o" unicode="o" 
d="M209 995q0 246 110 488q111 241 367 399t657 158q398 0 652 -160t364 -399q111 -240 111 -477v-9q0 -295 -129 -530.5t-385 -370.5t-608 -135q-373 0 -629 135t-381 370.5t-129 530.5zM578 1008q0 -217 94 -392q94 -174 268 -268t403 -94q226 0 400 94t266 268
q92 175 92 392q0 196 -94 366t-268 270.5t-396 100.5h-12q-229 0 -401 -96.5t-262 -266.5t-90 -374z" />
    <glyph glyph-name="p" unicode="p" 
d="M279 -561h184v2261h-197q-102 0 -102 106v86q0 107 110 107h471q54 0 54 -62v-208l12 -13q82 111 268 201q187 90 408 90q282 0 518 -129t371 -360.5t135 -518.5v-12q0 -328 -135 -551t-369 -332q-233 -108 -516 -108q-197 0 -406 96q-208 96 -274 207l-12 -25v-835h573
q107 0 107 -107v-86q0 -102 -115 -102h-1094q-106 0 -106 102v86q0 107 115 107zM1462 1688q-299 0 -489.5 -197t-190.5 -475q0 -213 88 -375t246 -246t359 -84q303 0 485 192.5t182 487.5v13q-4 307 -196 495q-193 189 -484 189z" />
    <glyph glyph-name="q" unicode="q" 
d="M2216 -561h184q111 0 111 -107v-86q0 -102 -103 -102h-1093q-115 0 -115 102v86q0 107 107 107h573v835l-12 25q-66 -111 -277 -207t-407 -96q-279 0 -514 108q-236 109 -373 332t-137 543l4 20q0 287 137 520.5t372.5 360.5t518.5 127q205 0 393 -92q189 -92 283 -199
l12 13v208q0 62 53 62h471q107 0 107 -107v-86q0 -106 -103 -106h-192v-2261zM532 1004v-13q0 -295 184.5 -487.5t487.5 -192.5q201 0 358.5 84t245.5 246t88 375q0 262 -190 467t-477 205q-295 0 -496 -191q-201 -190 -201 -493z" />
    <glyph glyph-name="r" unicode="r" 
d="M434 1999h627q57 0 57 -62v-368l25 -8q172 249 379 364t460 115q193 0 328 -51.5t135 -202.5q0 -201 -184 -201q-78 0 -176 70q-98 65 -217 65q-185 0 -350.5 -129t-399.5 -395v-901h762q107 0 107 -107v-82q0 -106 -111 -106h-1540q-107 0 -107 106v82q0 107 111 107
h438v1405h-344q-110 0 -110 106v86q0 107 110 107z" />
    <glyph glyph-name="s" unicode="s" 
d="M721 565q70 -172 291 -258t426 -86q188 0 348 86t160 258t-148 234q-147 61 -364 61h-111q-233 0 -430 37t-336 162t-139 366v5q0 233 127 370t315 189q189 51 393 51q140 0 285 -19q145 -18 256 -67q16 -8 25 -8q20 0 73 41q54 41 115 41q143 0 143 -103v-483
q0 -94 -114 -94q-62 0 -267 217q-204 213 -516 213q-245 0 -374 -88t-129 -240q0 -156 172 -213t385 -57h147q217 0 395 -43q179 -43 299 -176q121 -134 121 -379q0 -238 -117 -377q-116 -139 -307 -193q-190 -53 -428 -53q-139 0 -327 37q-254 45 -320 53q-98 -98 -180 -98
h-25q-155 0 -155 147v492q0 119 155 119q94 0 156 -144z" />
    <glyph glyph-name="t" unicode="t" 
d="M2023 1999q119 0 119 -115v-110q0 -99 -119 -99h-929v-1057q0 -135 133 -239.5t276 -104.5q176 0 451 123q270 119 327 119h5q168 0 168 -143q0 -115 -162 -211t-394 -152q-231 -55 -407 -55q-266 0 -432 100q-166 101 -234 246q-67 145 -67 293v1081h-414
q-119 0 -119 107v106q0 111 115 111h418v561q0 119 114 119h103q119 0 119 -123v-557h929z" />
    <glyph glyph-name="u" unicode="u" 
d="M2195 295h160q135 0 135 -98v-95q0 -102 -114 -102h-447q-74 0 -74 57v152l-8 24q-143 -143 -303 -208.5t-340 -65.5h-12q-315 0 -514 162t-199 440v1139h-188q-107 0 -107 102v86q0 111 107 111h442q86 0 86 -90v-1217q0 -184 125 -309t338 -125q258 0 415.5 155.5
t157.5 299.5v987h-339q-107 0 -107 98v86q0 115 111 115h573q102 0 102 -98v-1606z" />
    <glyph glyph-name="v" unicode="v" 
d="M217 1999h758q102 0 102 -111v-86q0 -102 -106 -102h-221l561 -1376l622 1376h-299q-110 0 -110 102v86q0 111 110 111h828q110 0 110 -111v-86q0 -102 -114 -102h-164l-770 -1651q-37 -90 -152 -90h-131q-106 0 -139 86l-758 1655h-127q-111 0 -111 106v86
q0 107 111 107z" />
    <glyph glyph-name="w" unicode="w" 
d="M197 1704h-91q-106 0 -106 111v81q0 103 106 103h734q110 0 110 -107v-86q0 -102 -119 -102h-294l356 -1290l278 954q21 123 119 123h131q86 0 127 -127l279 -950l348 1286h-283q-118 0 -118 102v86q0 111 106 111h684q111 0 111 -111v-86q0 -102 -107 -102h-69
l-488 -1626q-24 -115 -115 -115h-122q-95 0 -136 127l-299 995l-262 -966q-45 -156 -143 -156h-119q-94 0 -131 123z" />
    <glyph glyph-name="x" unicode="x" 
d="M336 1999h708q111 0 111 -111v-86q0 -102 -111 -102h-135l459 -459l442 459h-176q-110 0 -110 102v86q0 111 110 111h713q107 0 107 -111v-86q0 -102 -115 -102h-168l-615 -656l750 -749h90q103 0 103 -107v-82q0 -106 -111 -106h-713q-110 0 -110 106v82q0 107 110 107
h213l-536 528l-496 -528h176q111 0 111 -107v-82q0 -106 -111 -106h-745q-111 0 -111 102v82q0 111 111 111h168l700 725l-680 680h-139q-111 0 -111 102v86q0 111 111 111z" />
    <glyph glyph-name="y" unicode="y" 
d="M254 1999h766q110 0 110 -111v-86q0 -102 -110 -102h-225l581 -1200l582 1200h-229q-115 0 -115 102v86q0 111 110 111h701q110 0 110 -111v-86q0 -102 -110 -102h-94l-1131 -2261h234q110 0 110 -107v-82q0 -106 -110 -106h-1123q-110 0 -110 106v82q0 107 110 107h516
l365 700l-795 1561h-143q-111 0 -111 102v86q0 111 111 111z" />
    <glyph glyph-name="z" unicode="z" 
d="M664 1999h1396q176 0 176 -164v-102q0 -74 -73 -144l-1303 -1294h1069v291q0 123 103 123h102q102 0 102 -127v-467q0 -115 -143 -115h-1503q-152 0 -152 135v94q0 70 54 123l1323 1348h-1041v-279q0 -135 -86 -135h-106q-115 0 -115 119v459q0 135 197 135z" />
    <glyph glyph-name="braceleft" unicode="{" 
d="M1192 889v-29q156 -8 266 -162q111 -153 111 -333l4 -582q0 -135 108 -205q109 -70 232 -70h12q131 0 131 -110l-4 -98q0 -111 -115 -111h-168q-245 0 -405 168t-160 438v492q0 135 -63.5 253.5t-288.5 147.5q-221 21 -229 131v107q12 114 225 135q225 29 289 147
q63 119 63 254v492q0 270 160 438t405 168h168q115 0 115 -111l4 -98q0 -110 -131 -110h-12q-123 0 -232 -70q-108 -70 -108 -205v-582q0 -180 -111 -333q-110 -154 -266 -162z" />
    <glyph glyph-name="bar" unicode="|" 
d="M1155 3391q0 87 123 87h123q119 0 119 -87v-4452q0 -90 -119 -90h-123q-123 0 -123 90v4452z" />
    <glyph glyph-name="braceright" unicode="}" 
d="M1114 1384l-4 582q0 135 -111 205q-110 70 -233 70h-8q-131 0 -131 110l4 98q0 111 114 111h168q246 0 406 -168t160 -438v-492q0 -135 63 -254q64 -118 289 -147q213 -21 225 -135v-107q-8 -110 -229 -131q-225 -29 -289 -147q-63 -119 -63 -254v-492q0 -270 -160 -438
t-406 -168h-168q-114 0 -114 111l-4 98q0 110 131 110h8q123 0 235 70q113 70 113 205v582q0 180 111 333q110 154 266 162v29q-156 8 -264.5 161.5t-108.5 333.5z" />
    <glyph glyph-name="asciitilde" unicode="~" 
d="M360 2392l-4 4q0 139 149.5 286.5t469.5 147.5q344 0 368 -49q95 -37 234 -61.5t246 -24.5q119 0 205 86q86 111 159 111q127 0 127 -99v-8q0 -143 -147.5 -288.5t-470.5 -145.5q-193 0 -353 53q-94 37 -243.5 61.5t-247.5 24.5q-119 0 -205 -86q-86 -110 -160 -110
q-127 0 -127 98z" />
    <glyph glyph-name="Adieresis" unicode="&#xa1;" 
d="M954 3269q21 -119 139.5 -191t245.5 -72t244 72t141 191q17 106 82 106h127q70 0 70 -78v-78q0 -155 -150 -329q-149 -174 -510 -178q-364 4 -518 178q-153 174 -153 329v78q0 78 73 78h127q66 0 82 -106zM217 2560h819q111 0 111 -106v-82q0 -107 -111 -107h-250
l590 -1204l541 1204h-209q-111 0 -111 107v82q0 106 111 106h746q110 0 110 -106v-82q0 -107 -110 -107l-201 -4l-856 -1896q-111 -254 -248 -330t-318 -76h-217q-106 0 -106 111v114q0 111 90 111h229q127 0 231.5 116.5t104.5 239.5v78l-741 1536h-201q-110 0 -110 107v82
q0 106 106 106z" />
    <glyph glyph-name="Aring" unicode="&#xa2;" 
d="M1004 2712q12 -78 100 -154t219 -76q4 0 12 4h8h9l8 -4q131 0 217 76t98 154q21 114 82 114h135q66 0 66 -98q0 -131 -139.5 -309t-479.5 -183q-340 5 -479 183t-139 309q0 98 65 98h136q61 0 82 -114zM254 1999h766q110 0 110 -111v-86q0 -102 -110 -102h-225l581 -1200
l582 1200h-229q-115 0 -115 102v86q0 111 110 111h701q110 0 110 -111v-86q0 -102 -110 -102h-94l-1131 -2261h234q110 0 110 -107v-82q0 -106 -110 -106h-1123q-110 0 -110 106v82q0 107 110 107h516l365 700l-795 1561h-143q-111 0 -111 102v86q0 111 111 111z" />
    <glyph glyph-name="Ccedilla" unicode="&#xa3;" horiz-adv-x="2679" 
d="M0 0v2679h2679v-2679h-2679z" />
    <glyph glyph-name="Eacute" unicode="&#xa4;" horiz-adv-x="2679" 
d="M0 0v2679h2679v-2679h-2679z" />
    <glyph glyph-name="Ntilde" unicode="&#xa5;" 
d="M2134 2560v541q0 118 102 118h91q114 0 114 -114v-754q0 -86 -98 -86h-1331v-1970h475q102 0 102 -98v-95q0 -102 -102 -102h-1143q-119 0 -119 106v99q0 90 127 90h320v1970h-320q-123 0 -123 102v95q0 98 119 98h1786z" />
    <glyph glyph-name="Odieresis" unicode="&#xa6;" horiz-adv-x="2679" 
d="M0 0v2679h2679v-2679h-2679z" />
    <glyph glyph-name="Udieresis" unicode="&#xa7;" horiz-adv-x="2666" 
d="M930 1409q-49 12 -94 12q-140 0 -140 -106l4 -4q0 -123 205 -250l881 -565q119 -70 180 -70q98 0 98 131q0 78 -49 131t-200 152zM2077 70v-21q0 -180 -176.5 -307t-319.5 -127h-889q-106 0 -106 82v422q0 114 86 114h159q74 0 74 -114v-250h586q225 0 238 176v25
q0 118 -95 180l-950 586q-160 98 -215 196t-59 279q0 155 114 276q115 121 254 121h17l-25 143v50q0 172 127 274t287 102h897q106 0 106 -98v-446q0 -91 -69 -91h-148q-74 0 -74 95v282h-606q-233 0 -233 -164q0 -176 106 -241l914 -582q196 -160 245 -260q50 -100 50 -244
q0 -143 -80 -233t-224 -119z" />
    <glyph glyph-name="aacute" unicode="&#xa8;" 
d="M1016 3277q127 0 198 -78q72 -78 72 -193q0 -114 -69.5 -192t-200.5 -78t-205 78t-74 192q0 115 74 193t205 78zM1851 3277q127 0 199 -78t72 -193q0 -114 -70 -192t-201 -78t-204.5 78t-73.5 192q0 115 73.5 193t204.5 78zM238 106v82q0 107 118 107h283v1970h-291
q-110 0 -110 107v82q0 106 110 106h1987q102 0 102 -102v-652q0 -114 -102 -114h-103q-102 0 -102 118v455h-1155v-741h561v205q0 122 98 122h90q91 0 91 -122v-680q0 -115 -91 -115h-110q-78 0 -78 115v213h-561v-967h1155v491q0 115 119 115h82q106 0 106 -110v-701
q0 -90 -102 -90h-1979q-118 0 -118 106z" />
    <glyph glyph-name="agrave" unicode="&#xa9;" 
d="M1298 2421q-266 0 -493 -144q-227 -143 -356 -387q-130 -243 -130 -514q0 -266 133.5 -497.5t362.5 -364.5t500 -133q270 0 501.5 137t364.5 372.5t133 506.5q0 262 -135 501q-135 240 -369 381q-233 142 -499 142h-13zM1307 2613q319 0 598 -164q278 -163 442 -444
t164 -604q0 -316 -158 -598.5t-434.5 -450.5t-607.5 -168q-316 0 -592.5 162t-437.5 442q-162 281 -162 601v4q0 319 155 604q156 284 430.5 450t593.5 166h9zM1847 1675q-16 -90 -114 -90q-111 0 -127 90q-17 94 -93 185q-75 90 -210 90q-205 0 -318 -158t-113 -403v-21
q0 -188 127 -352t312 -164q159 0 348 139q37 33 86 33h8q74 0 102 -49q25 -33 25 -86q0 -25 -8 -45q-57 -90 -240 -166q-182 -76 -342 -76q-213 0 -372.5 108.5t-243.5 290.5q-84 183 -84 400q0 201 77.5 377t235.5 284q158 109 379 109q123 0 201 -41q86 -41 123 -41
q28 0 52.5 24.5t90.5 28.5q98 0 98 -78v-389z" />
    <glyph glyph-name="acircumflex" unicode="&#xaa;" horiz-adv-x="2724" 
d="M582 1257l-4 -36q0 -238 108 -455q109 -217 299 -348q191 -131 408 -131q159 0 390.5 79.5t334.5 178.5q57 49 159 49q131 -16 140 -107v-28l-21 -107q-143 -176 -432 -291q-289 -114 -567 -114q-348 0 -625 182q-276 182 -426 487q-149 306 -149 646l4 12q4 348 147 668
q144 319 418 513.5t639 194.5q151 0 313 -39t285 -112q8 -5 12 -5q17 0 17 17q12 94 110 94h111q106 0 106 -151v-693q0 -90 -118 -90h-87l-8 -4q-143 0 -143 197l4 12q-4 213 -180 342t-430 129q-189 0 -375 -115q-186 -114 -301 -307q-115 -192 -115 -405h676v204
q0 123 90 123h107q82 0 82 -123v-692q0 -102 -74 -102h-115q-90 0 -90 106v221h-700z" />
    <glyph glyph-name="adieresis" unicode="&#xab;" 
d="M942 1622q29 61 115 61q37 0 53 -12q78 -45 78 -110q0 -21 -8 -54l-287 -549l287 -548l4 -41q0 -95 -82 -123q-49 -21 -78 -21q-74 0 -98 45l-332 680zM1614 1618q28 61 115 61q40 0 57 -12q78 -49 78 -111q0 -28 -13 -53l-282 -549l282 -548q9 -17 9 -41q0 -91 -82 -123
q-49 -21 -82 -21q-74 0 -99 45l-327 680z" />
    <glyph glyph-name="atilde" unicode="&#xac;" horiz-adv-x="2679" 
d="M0 0v2679h2679v-2679h-2679z" />
    <glyph glyph-name="aring" unicode="&#xad;" 
d="M2232 782h-1781q-99 0 -99 82v160q0 86 103 86h1765q107 0 107 -86v-156q0 -86 -95 -86z" />
    <glyph glyph-name="ccedilla" unicode="&#xae;" 
d="M1286 2421q-266 0 -495 -144q-230 -143 -361 -385q-131 -241 -131 -508q4 -4 4 -8q0 -266 133 -497.5t364.5 -364.5t502.5 -133q270 0 501 137q232 137 367 372.5t135 506.5q0 262 -137 501q-137 240 -371 381q-233 142 -500 142h-12zM1294 2613q320 0 600 -162
q281 -161 447 -442q166 -280 166 -600l-4 -8q0 -316 -158 -598.5t-436.5 -450.5t-610.5 -168q-315 0 -591.5 162t-438.5 442q-162 281 -162 601v4q0 319 156 603.5t430 450.5q275 166 594 166h8zM1143 1896v-389h217q168 0 168 193q0 196 -152 196h-233zM750 2118h659
q193 0 279 -123t86 -291q0 -152 -68 -256.5t-182 -124.5q78 -78 133 -154q55 -75 141 -219h86q58 0 58 -110q0 -115 -58 -115h-246q-127 213 -217 342t-196 215h-86v-332h131q45 0 53 -110q0 -115 -57 -115h-516q-58 0 -58 106q0 119 58 119h135v951h-135q-54 0 -58 106
q0 111 58 111z" />
    <glyph glyph-name="eacute" unicode="&#xaf;" 
d="M954 3285q127 0 199 -78t72 -192q0 -115 -70 -193t-201 -78t-206.5 78t-75.5 193q0 114 75.5 192t206.5 78zM1790 3285q127 0 198.5 -78t71.5 -192q0 -115 -69.5 -193t-200.5 -78t-207 78t-76 193q0 114 76 192t207 78zM2142 0h-1601q-111 0 -111 106v82q0 107 111 107
h630v1970h-630q-111 0 -111 107v82q0 106 111 106h1601q107 0 107 -106v-82q0 -107 -111 -107h-631v-1970h631q111 0 111 -107v-82q0 -106 -107 -106z" />
    <glyph glyph-name="egrave" unicode="&#xb0;" 
d="M1176 2458q-156 0 -248 -105q-92 -104 -92 -248q0 -143 90 -243.5t258 -100.5q172 0 258 100.5t86 252.5q0 143 -98 243q-99 101 -254 101zM1176 2765q282 0 473 -195q190 -194 190 -465q0 -274 -182 -465q-182 -190 -486 -190q-286 0 -462 192q-177 193 -177 463
q0 267 183 463q182 197 461 197z" />
    <glyph glyph-name="ecircumflex" unicode="&#xb1;" horiz-adv-x="2679" 
d="M0 0v2679h2679v-2679h-2679z" />
    <glyph glyph-name="edieresis" unicode="&#xb2;" horiz-adv-x="2679" 
d="M0 0v2679h2679v-2679h-2679z" />
    <glyph glyph-name="iacute" unicode="&#xb3;" horiz-adv-x="2679" 
d="M0 0v2679h2679v-2679h-2679z" />
    <glyph glyph-name="igrave" unicode="&#xb4;" horiz-adv-x="2679" 
d="M0 0v2679h2679v-2679h-2679z" />
    <glyph glyph-name="icircumflex" unicode="&#xb5;" 
d="M291 1999h1884v491q0 148 102 148h103q102 0 102 -148v-680q0 -110 -143 -110h-1245v-1405h450q111 0 111 -107v-82q0 -106 -111 -106h-1257q-111 0 -111 106v82q0 107 111 107h471v1405h-459q-119 0 -119 102v86q0 111 111 111z" />
    <glyph glyph-name="idieresis" unicode="&#xb6;" horiz-adv-x="2662" 
d="M1307 2568h999q82 0 82 -135q0 -139 -86 -139h-221v-2314h295q65 0 65 -136q0 -139 -57 -139h-557v2589h-225v-2589h-742q-90 0 -90 139q0 136 86 136h508v1081q-250 0 -469 71.5t-354 235.5t-135 414q0 229 131 409q131 181 339.5 279t430.5 98z" />
    <glyph glyph-name="ntilde" unicode="&#xb8;" 
d="M934 2859q127 0 198.5 -78t71.5 -192q0 -115 -69.5 -193t-200.5 -78t-205 78t-74 193q0 114 74 192t205 78zM1769 2859q127 0 199 -78t72 -192q0 -115 -70 -193q-69 -78 -201 -78q-131 0 -206.5 78t-75.5 193q0 114 75.5 192t206.5 78zM1327 -41h-41q-254 0 -491.5 92
t-393.5 322q-155 229 -155 602q0 274 108 518q109 244 361 395q252 152 641 152q405 0 647 -168t334 -371t92 -317v-160q0 -135 -143 -135h-1672v-37q4 -602 754 -602q201 0 528 135q314 131 406 131h4q111 -16 111 -86v-74q0 -90 -111 -147q-315 -164 -459 -193
q-143 -28 -520 -57zM2032 1184v49q0 147 -179 328q-178 180 -469 184h-12q-393 0 -567 -199q-174 -198 -174 -321v-41h1401z" />
    <glyph glyph-name="oacute" unicode="&#xb9;" 
d="M2232 1630q-98 0 -159.5 -125t-61.5 -268q0 -152 57 -266q58 -115 164 -115q107 0 156 106.5t49 254.5v40q-4 156 -55 264.5t-150 108.5zM2220 1806q193 0 293 -155.5t100 -409.5q0 -262 -98 -418q-98 -155 -291 -159l-12 -5q-180 0 -279 164q-98 164 -98 414
q0 258 98 414q99 155 287 155zM1946 8q-107 0 -107 103v94q0 98 107 98h528q119 0 119 -90v-94q0 -111 -119 -111h-528zM287 295v1970h-111q-123 0 -123 107v90q0 98 119 98h410q69 0 118 -82l709 -1827v1614h-123q-131 0 -131 107v86q0 102 119 102h643q115 0 115 -98v-90
q0 -107 -123 -107h-209v-2245q0 -49 -49 -49h-267l-802 2007v-1683h163q119 0 119 -90v-94q0 -111 -119 -111h-565q-119 0 -119 102v95q0 98 119 98h107z" />
    <glyph glyph-name="ograve" unicode="&#xba;" 
d="M1982 590l62 28q4 0 37 4.5t53 4.5q82 0 119 -62q24 -24 24 -73q0 -70 -65 -156q-123 -135 -379 -256t-604 -121q-275 0 -516.5 125t-388.5 358q-148 234 -148 537q0 287 123 530q123 244 367 387q243 144 579 144q185 0 342 -35q158 -35 346 -141v49q0 98 123 98h86
q119 0 119 -131v-573q0 -107 -86 -107h-143q-58 0 -82 82q-115 205 -267 320q-151 114 -401 114q-303 0 -500 -149q-196 -150 -217 -371h901q119 0 119 -86v-119q0 -73 -119 -73h-917q0 -250 209 -443q209 -192 495 -196q209 8 385 77q177 70 344 234z" />
    <glyph glyph-name="ocircumflex" unicode="&#xbb;" 
d="M1667 1622l344 -672l-328 -680q-20 -45 -102 -45q-25 0 -78 21q-86 33 -86 123q0 16 13 41l282 548l-282 549q-17 33 -17 54q0 61 82 110q21 12 53 12q90 0 119 -61zM991 1618l348 -672l-331 -680q-21 -45 -103 -45q-20 0 -74 21q-86 32 -86 123q0 16 13 41l282 548
l-282 549q-17 33 -17 53q0 62 82 111q21 12 49 12q91 0 119 -61z" />
    <glyph glyph-name="odieresis" unicode="&#xbc;" horiz-adv-x="2679" 
d="M0 0v2679h2679v-2679h-2679z" />
    <glyph glyph-name="otilde" unicode="&#xbd;" horiz-adv-x="2679" 
d="M0 0v2679h2679v-2679h-2679z" />
    <glyph glyph-name="uacute" unicode="&#xbe;" horiz-adv-x="2679" 
d="M0 0v2679h2679v-2679h-2679z" />
    <glyph glyph-name="ugrave" unicode="&#xbf;" horiz-adv-x="2724" 
d="M721 2859q127 0 198.5 -78t71.5 -192q0 -115 -69.5 -193t-200.5 -78t-205 78t-74 193q0 114 74 192t205 78zM1556 2859q127 0 199 -78t72 -192q0 -115 -70 -193q-69 -78 -201 -78q-131 0 -204.5 78t-73.5 193q0 114 73.5 192t204.5 78zM1466 1999q70 0 70 -86v-1618h754
q106 0 106 -102v-87q0 -106 -106 -106h-1811q-110 0 -110 102v95q0 98 110 98h717v1405h-479q-111 0 -111 110v95q0 45 111 94h749z" />
    <glyph glyph-name="ucircumflex" unicode="&#xc1;" 
d="M999 1217v-922h557q185 0 347 141q161 142 161 326q0 168 -149 311q-150 144 -346 144h-570zM2372 2441v-602q0 -86 -103 -86h-102q-103 0 -103 119v393h-1065v-754h582q205 0 409.5 -104t333.5 -272q130 -168 130 -349q0 -229 -125 -409t-330 -279q-205 -98 -426 -98
h-1225q-119 0 -119 98v103l-4 4q0 90 127 90h312v1970h-320q-115 0 -115 98v99q0 98 119 98h1897q127 0 127 -119z" />
    <glyph glyph-name="ucircumflex" unicode="&#x411;" 
d="M999 1217v-922h557q185 0 347 141q161 142 161 326q0 168 -149 311q-150 144 -346 144h-570zM2372 2441v-602q0 -86 -103 -86h-102q-103 0 -103 119v393h-1065v-754h582q205 0 409.5 -104t333.5 -272q130 -168 130 -349q0 -229 -125 -409t-330 -279q-205 -98 -426 -98
h-1225q-119 0 -119 98v103l-4 4q0 90 127 90h312v1970h-320q-115 0 -115 98v99q0 98 119 98h1897q127 0 127 -119z" />
    <glyph glyph-name="udieresis" unicode="&#xc3;" 
d="M2445 1655q0 -115 -114 -115h-90q-103 0 -103 119v606h-1126v-1970h475q102 0 102 -98v-95q0 -102 -102 -102h-1143q-115 0 -115 106v95l-4 4q0 90 127 90h320v1970h-320q-123 0 -123 102v95q0 98 119 98h2003q94 0 94 -102v-803z" />
    <glyph glyph-name="udieresis" unicode="&#x413;" 
d="M2445 1655q0 -115 -114 -115h-90q-103 0 -103 119v606h-1126v-1970h475q102 0 102 -98v-95q0 -102 -102 -102h-1143q-115 0 -115 106v95l-4 4q0 90 127 90h320v1970h-320q-123 0 -123 102v95q0 98 119 98h2003q94 0 94 -102v-803z" />
    <glyph glyph-name="dagger" unicode="&#xc4;" 
d="M1032 918q-12 -189 -59 -375.5t-125 -247.5h1020v1970h-836v-1347zM414 2265q-111 0 -111 107v82q0 106 111 106h1937q111 0 111 -106v-82q0 -107 -111 -107h-143v-1970h180q74 0 74 -74v-782q0 -131 -90 -131h-131q-91 0 -91 131v561h-1626v-561q0 -131 -86 -131h-135
q-86 0 -86 131v782q0 74 74 74h139q94 0 178 219t84 424v1327h-278z" />
    <glyph glyph-name="dagger" unicode="&#x414;" 
d="M1032 918q-12 -189 -59 -375.5t-125 -247.5h1020v1970h-836v-1347zM414 2265q-111 0 -111 107v82q0 106 111 106h1937q111 0 111 -106v-82q0 -107 -111 -107h-143v-1970h180q74 0 74 -74v-782q0 -131 -90 -131h-131q-91 0 -91 131v561h-1626v-561q0 -131 -86 -131h-135
q-86 0 -86 131v782q0 74 74 74h139q94 0 178 219t84 424v1327h-278z" />
    <glyph glyph-name="degree" unicode="&#xc6;" 
d="M1602 0h-525q-90 0 -90 106v82q0 107 82 107h107v782l-177 94q-90 -32 -192 -262q-102 -229 -225 -569l-58 -246q-28 -94 -110 -94h-242q-86 0 -86 106v82q0 107 107 107h81q50 217 117 424q68 207 172 393q105 186 244 318l-504 831h-61q-111 0 -111 111v82
q0 106 111 106h454q111 0 111 -106v-82q0 -107 -111 -107h-98l532 -885l46 -8v893h-78q-111 0 -111 107v82q0 106 111 106h483q111 0 111 -106v-82q0 -107 -111 -107h-78v-893l45 8l533 885h-99q-110 0 -110 107v82q0 106 110 106h455q111 0 111 -106v-82q0 -111 -111 -111
h-61l-504 -831q139 -132 243.5 -318t172 -393t116.5 -424h82q107 0 107 -107v-82q0 -106 -86 -106h-242q-82 0 -111 94l-57 246q-123 340 -225 569q-103 230 -193 262l-176 -94v-782h107q82 0 82 -107v-82q0 -106 -90 -106z" />
    <glyph glyph-name="degree" unicode="&#x416;" 
d="M1602 0h-525q-90 0 -90 106v82q0 107 82 107h107v782l-177 94q-90 -32 -192 -262q-102 -229 -225 -569l-58 -246q-28 -94 -110 -94h-242q-86 0 -86 106v82q0 107 107 107h81q50 217 117 424q68 207 172 393q105 186 244 318l-504 831h-61q-111 0 -111 111v82
q0 106 111 106h454q111 0 111 -106v-82q0 -107 -111 -107h-98l532 -885l46 -8v893h-78q-111 0 -111 107v82q0 106 111 106h483q111 0 111 -106v-82q0 -107 -111 -107h-78v-893l45 8l533 885h-99q-110 0 -110 107v82q0 106 110 106h455q111 0 111 -106v-82q0 -111 -111 -111
h-61l-504 -831q139 -132 243.5 -318t172 -393t116.5 -424h82q107 0 107 -107v-82q0 -106 -86 -106h-242q-82 0 -111 94l-57 246q-123 340 -225 569q-103 230 -193 262l-176 -94v-782h107q82 0 82 -107v-82q0 -106 -90 -106z" />
    <glyph glyph-name="cent" unicode="&#xc7;" 
d="M1339 1466q189 0 342 111q154 111 158 303v4q0 152 -139 281t-361 129q-237 0 -413 -117t-176 -322l4 -4q0 -118 -123 -118h-90q-119 0 -119 73v619q0 151 98 151h139q103 0 103 -168h33q86 111 233 154q148 43 324 43h8q270 0 458.5 -104.5t280.5 -262.5
q92 -157 92 -305q0 -217 -110.5 -370.5t-327.5 -206.5q238 -49 377 -221t139 -398q0 -233 -112.5 -415.5t-323.5 -278.5t-485 -96h-9q-274 0 -575 79.5t-354 252.5l-4 40q0 160 143 160h8l4 -4q94 0 291 -106q201 -111 401 -111h82q209 16 393.5 116.5t184.5 354.5
q0 184 -156 313q-155 129 -373 129h-180q-102 0 -102 91v114q0 90 102 90h135z" />
    <glyph glyph-name="cent" unicode="&#x417;" 
d="M1339 1466q189 0 342 111q154 111 158 303v4q0 152 -139 281t-361 129q-237 0 -413 -117t-176 -322l4 -4q0 -118 -123 -118h-90q-119 0 -119 73v619q0 151 98 151h139q103 0 103 -168h33q86 111 233 154q148 43 324 43h8q270 0 458.5 -104.5t280.5 -262.5
q92 -157 92 -305q0 -217 -110.5 -370.5t-327.5 -206.5q238 -49 377 -221t139 -398q0 -233 -112.5 -415.5t-323.5 -278.5t-485 -96h-9q-274 0 -575 79.5t-354 252.5l-4 40q0 160 143 160h8l4 -4q94 0 291 -106q201 -111 401 -111h82q209 16 393.5 116.5t184.5 354.5
q0 184 -156 313q-155 129 -373 129h-180q-102 0 -102 91v114q0 90 102 90h135z" />
    <glyph glyph-name="sterling" unicode="&#xc8;" 
d="M819 537v-242h262q111 0 111 -107v-82q0 -106 -111 -106h-741q-111 0 -111 106v82q0 107 111 107h139v1970h-139q-111 0 -111 107v82q0 106 111 106h741q111 0 111 -106v-82q0 -107 -111 -107h-262v-1352l1041 1147v205h-267q-106 0 -106 107v82q0 106 106 106h746
q110 0 110 -106v-82q0 -107 -110 -107h-139v-1970h139q110 0 110 -107v-82q0 -106 -110 -106h-746q-106 0 -106 106v82q0 107 106 107h267v1376z" />
    <glyph glyph-name="sterling" unicode="&#x418;" 
d="M819 537v-242h262q111 0 111 -107v-82q0 -106 -111 -106h-741q-111 0 -111 106v82q0 107 111 107h139v1970h-139q-111 0 -111 107v82q0 106 111 106h741q111 0 111 -106v-82q0 -107 -111 -107h-262v-1352l1041 1147v205h-267q-106 0 -106 107v82q0 106 106 106h746
q110 0 110 -106v-82q0 -107 -110 -107h-139v-1970h139q110 0 110 -107v-82q0 -106 -110 -106h-746q-106 0 -106 106v82q0 107 106 107h267v1376z" />
    <glyph glyph-name="section" unicode="&#xc9;" 
d="M954 3269q21 -119 139.5 -191t245.5 -72t244 72t141 191q17 106 82 106h127q70 0 70 -78v-78q0 -155 -150 -329q-149 -174 -510 -178q-364 4 -518 178q-153 174 -153 329v78q0 78 73 78h127q66 0 82 -106zM819 537v-242h262q111 0 111 -107v-82q0 -106 -111 -106h-741
q-111 0 -111 106v82q0 107 111 107h139v1970h-139q-111 0 -111 107v82q0 106 111 106h741q111 0 111 -106v-82q0 -107 -111 -107h-262v-1352l1041 1147v205h-267q-106 0 -106 107v82q0 106 106 106h746q110 0 110 -106v-82q0 -107 -110 -107h-139v-1970h139q110 0 110 -107
v-82q0 -106 -110 -106h-746q-106 0 -106 106v82q0 107 106 107h267v1376z" />
    <glyph glyph-name="section" unicode="&#x419;" 
d="M954 3269q21 -119 139.5 -191t245.5 -72t244 72t141 191q17 106 82 106h127q70 0 70 -78v-78q0 -155 -150 -329q-149 -174 -510 -178q-364 4 -518 178q-153 174 -153 329v78q0 78 73 78h127q66 0 82 -106zM819 537v-242h262q111 0 111 -107v-82q0 -106 -111 -106h-741
q-111 0 -111 106v82q0 107 111 107h139v1970h-139q-111 0 -111 107v82q0 106 111 106h741q111 0 111 -106v-82q0 -107 -111 -107h-262v-1352l1041 1147v205h-267q-106 0 -106 107v82q0 106 106 106h746q110 0 110 -106v-82q0 -107 -110 -107h-139v-1970h139q110 0 110 -107
v-82q0 -106 -110 -106h-746q-106 0 -106 106v82q0 107 106 107h267v1376z" />
    <glyph glyph-name="bullet" unicode="&#xcb;" 
d="M455 2560h1917q110 0 110 -106v-82q0 -107 -106 -107h-144v-1970h140q110 0 110 -107v-82q0 -106 -110 -106h-680q-107 0 -107 106v82q0 107 107 107h204v1970h-843v-1241q0 -127 -41 -369q-41 -241 -166 -454t-350 -213h-152q-151 0 -151 114v70q0 127 151 127h82
q119 4 203 243.5t84 444.5v1278h-258q-111 0 -111 107v82q0 106 111 106z" />
    <glyph glyph-name="bullet" unicode="&#x41b;" 
d="M455 2560h1917q110 0 110 -106v-82q0 -107 -106 -107h-144v-1970h140q110 0 110 -107v-82q0 -106 -110 -106h-680q-107 0 -107 106v82q0 107 107 107h204v1970h-843v-1241q0 -127 -41 -369q-41 -241 -166 -454t-350 -213h-152q-151 0 -151 114v70q0 127 151 127h82
q119 4 203 243.5t84 444.5v1278h-258q-111 0 -111 107v82q0 106 111 106z" />
    <glyph glyph-name="paragraph" unicode="&#xcf;" 
d="M1860 295v1970h-1041v-1970h262q111 0 111 -107v-82q0 -106 -111 -106h-741q-111 0 -111 106v82q0 107 111 107h139v1970h-139q-111 0 -111 107v82q0 106 111 106h1999q110 0 110 -106v-82q0 -107 -110 -107h-139v-1970h139q110 0 110 -107v-82q0 -106 -110 -106h-746
q-106 0 -106 106v82q0 107 106 107h267z" />
    <glyph glyph-name="paragraph" unicode="&#x41f;" 
d="M1860 295v1970h-1041v-1970h262q111 0 111 -107v-82q0 -106 -111 -106h-741q-111 0 -111 106v82q0 107 111 107h139v1970h-139q-111 0 -111 107v82q0 106 111 106h1999q110 0 110 -106v-82q0 -107 -110 -107h-139v-1970h139q110 0 110 -107v-82q0 -106 -110 -106h-746
q-106 0 -106 106v82q0 107 106 107h267z" />
    <glyph glyph-name="germandbls" unicode="&#xd3;" 
d="M217 2560h819q111 0 111 -106v-82q0 -107 -111 -107h-250l590 -1204l541 1204h-209q-111 0 -111 107v82q0 106 111 106h746q110 0 110 -106v-82q0 -107 -110 -107l-201 -4l-856 -1896q-111 -254 -248 -330t-318 -76h-217q-106 0 -106 111v114q0 111 90 111h229
q127 0 231.5 116.5t104.5 239.5v78l-741 1536h-201q-110 0 -110 107v82q0 106 106 106z" />
    <glyph glyph-name="germandbls" unicode="&#x423;" 
d="M217 2560h819q111 0 111 -106v-82q0 -107 -111 -107h-250l590 -1204l541 1204h-209q-111 0 -111 107v82q0 106 111 106h746q110 0 110 -106v-82q0 -107 -110 -107l-201 -4l-856 -1896q-111 -254 -248 -330t-318 -76h-217q-106 0 -106 111v114q0 111 90 111h229
q127 0 231.5 116.5t104.5 239.5v78l-741 1536h-201q-110 0 -110 107v82q0 106 106 106z" />
    <glyph glyph-name="registered" unicode="&#xd4;" 
d="M1171 1790h-139q-225 0 -381 -127q-155 -127 -155 -389q0 -246 159 -375q160 -129 381 -129h135v1020zM1507 1790v-1020h135q218 0 379 129q162 129 162 375q0 262 -155.5 389t-380.5 127h-140zM848 0q-111 0 -111 106v74q0 107 111 107h328v200h-164q-201 0 -410 82
t-348 264.5t-139 456.5q0 266 133 446.5t335.5 260.5t411.5 80h181v200h-328q-111 0 -111 107v70q0 106 111 106h983q111 0 111 -106v-70q0 -107 -111 -107h-328v-200h180q209 0 412 -80t336 -260.5t133 -446.5q0 -274 -139 -456.5t-348 -264.5t-410 -82h-164v-200h328
q111 0 111 -107v-74q0 -106 -111 -106h-983z" />
    <glyph glyph-name="registered" unicode="&#x424;" 
d="M1171 1790h-139q-225 0 -381 -127q-155 -127 -155 -389q0 -246 159 -375q160 -129 381 -129h135v1020zM1507 1790v-1020h135q218 0 379 129q162 129 162 375q0 262 -155.5 389t-380.5 127h-140zM848 0q-111 0 -111 106v74q0 107 111 107h328v200h-164q-201 0 -410 82
t-348 264.5t-139 456.5q0 266 133 446.5t335.5 260.5t411.5 80h181v200h-328q-111 0 -111 107v70q0 106 111 106h983q111 0 111 -106v-70q0 -107 -111 -107h-328v-200h180q209 0 412 -80t336 -260.5t133 -446.5q0 -274 -139 -456.5t-348 -264.5t-410 -82h-164v-200h328
q111 0 111 -107v-74q0 -106 -111 -106h-983z" />
    <glyph glyph-name="copyright" unicode="&#xd6;" 
d="M1864 295v1970h-267q-110 0 -110 107v82q0 106 110 106h746q111 0 111 -106v-82q0 -107 -111 -107h-139v-1970h139q106 0 106 -102v-771q0 -135 -90 -135h-131q-86 0 -86 135v578h-1798q-111 0 -111 106v82q0 107 111 107h139v1970h-139q-111 0 -111 107v82
q0 106 111 106h741q111 0 111 -106v-82q0 -107 -111 -107h-262v-1970h1041z" />
    <glyph glyph-name="copyright" unicode="&#x426;" 
d="M1864 295v1970h-267q-110 0 -110 107v82q0 106 110 106h746q111 0 111 -106v-82q0 -107 -111 -107h-139v-1970h139q106 0 106 -102v-771q0 -135 -90 -135h-131q-86 0 -86 135v578h-1798q-111 0 -111 106v82q0 107 111 107h139v1970h-139q-111 0 -111 107v82
q0 106 111 106h741q111 0 111 -106v-82q0 -107 -111 -107h-262v-1970h1041z" />
    <glyph glyph-name="trademark" unicode="&#xd7;" 
d="M782 1585q0 -225 246 -225h819v905h-213q-110 0 -110 107v82q0 106 110 106h738q110 0 110 -106v-82q0 -107 -110 -107h-185v-1970h180q115 0 115 -102v-82q0 -111 -106 -111h-946q-111 0 -111 106v82q0 107 111 107h417v774h-872q-184 0 -357 160q-172 160 -172 344v692
h-143q-110 0 -110 107v82q0 106 110 106h741q111 0 111 -106v-82q0 -107 -111 -107h-262v-680z" />
    <glyph glyph-name="trademark" unicode="&#x427;" 
d="M782 1585q0 -225 246 -225h819v905h-213q-110 0 -110 107v82q0 106 110 106h738q110 0 110 -106v-82q0 -107 -110 -107h-185v-1970h180q115 0 115 -102v-82q0 -111 -106 -111h-946q-111 0 -111 106v82q0 107 111 107h417v774h-872q-184 0 -357 160q-172 160 -172 344v692
h-143q-110 0 -110 107v82q0 106 110 106h741q111 0 111 -106v-82q0 -107 -111 -107h-262v-680z" />
    <glyph glyph-name="acute" unicode="&#xd8;" 
d="M1110 2560h459q94 0 94 -106v-82q0 -107 -94 -107h-74v-1970h459v1970h-66q-94 0 -94 107v82q0 106 94 106h512q90 0 90 -106v-82q0 -107 -94 -107h-110v-1970h102q102 0 102 -107v-82q0 -106 -102 -106h-2097q-103 0 -103 106v82q0 107 103 107h102v1970h-110
q-95 0 -95 107v82q0 106 91 106h512q90 0 90 -106v-82q0 -107 -90 -107h-66v-1970h455v1970h-70q-94 0 -94 107v82q0 106 94 106z" />
    <glyph glyph-name="acute" unicode="&#x428;" 
d="M1110 2560h459q94 0 94 -106v-82q0 -107 -94 -107h-74v-1970h459v1970h-66q-94 0 -94 107v82q0 106 94 106h512q90 0 90 -106v-82q0 -107 -94 -107h-110v-1970h102q102 0 102 -107v-82q0 -106 -102 -106h-2097q-103 0 -103 106v82q0 107 103 107h102v1970h-110
q-95 0 -95 107v82q0 106 91 106h512q90 0 90 -106v-82q0 -107 -90 -107h-66v-1970h455v1970h-70q-94 0 -94 107v82q0 106 94 106z" />
    <glyph glyph-name="dieresis" unicode="&#xd9;" 
d="M1569 2560q94 0 94 -106v-82q0 -107 -94 -107h-74v-1970h459v1970h-66q-94 0 -94 107v82q0 106 94 106h512q90 0 90 -106v-82q0 -107 -94 -107h-110v-1970h102q102 0 102 -107v-602q0 -147 -86 -147h-135q-86 0 -86 135v426h-1892q-103 0 -103 106v82q0 107 103 107h102
v1970h-110q-95 0 -95 107v82q0 106 91 106h512q90 0 90 -106v-82q0 -107 -90 -107h-66v-1970h455v1970h-70q-94 0 -94 107v82q0 106 94 106h459z" />
    <glyph glyph-name="dieresis" unicode="&#x429;" 
d="M1569 2560q94 0 94 -106v-82q0 -107 -94 -107h-74v-1970h459v1970h-66q-94 0 -94 107v82q0 106 94 106h512q90 0 90 -106v-82q0 -107 -94 -107h-110v-1970h102q102 0 102 -107v-602q0 -147 -86 -147h-135q-86 0 -86 135v426h-1892q-103 0 -103 106v82q0 107 103 107h102
v1970h-110q-95 0 -95 107v82q0 106 91 106h512q90 0 90 -106v-82q0 -107 -90 -107h-66v-1970h455v1970h-70q-94 0 -94 107v82q0 106 94 106h459z" />
    <glyph glyph-name="notequal" unicode="&#xda;" 
d="M1655 1298h-369v-995h365q213 0 360 131q148 131 148 369q0 221 -148 358q-147 137 -356 137zM1667 0h-987q-115 0 -115 106v103l-4 4q0 90 123 90h266v1966h-504v-684q0 -135 -90 -135h-131q-90 0 -90 135v840q0 135 115 135h1585q115 0 115 -102v-103q0 -86 -123 -86
h-541v-672h381q221 0 426 -100t330 -287q125 -186 125 -419q0 -246 -125 -426.5t-328 -272.5t-428 -92z" />
    <glyph glyph-name="notequal" unicode="&#x42a;" 
d="M1655 1298h-369v-995h365q213 0 360 131q148 131 148 369q0 221 -148 358q-147 137 -356 137zM1667 0h-987q-115 0 -115 106v103l-4 4q0 90 123 90h266v1966h-504v-684q0 -135 -90 -135h-131q-90 0 -90 135v840q0 135 115 135h1585q115 0 115 -102v-103q0 -86 -123 -86
h-541v-672h381q221 0 426 -100t330 -287q125 -186 125 -419q0 -246 -125 -426.5t-328 -272.5t-428 -92z" />
    <glyph glyph-name="AE" unicode="&#xdb;" 
d="M807 295q237 0 405 118.5t168 377.5q0 270 -166 389q-165 118 -407 118h-86v-1003h86zM1819 2265q-111 0 -111 107v82q0 106 107 106h593q111 0 111 -106v-82q0 -107 -111 -107h-110v-1970h110q111 0 111 -107v-82q0 -106 -111 -106h-589q-111 0 -111 106v82
q0 107 111 107h139v1970h-139zM279 295h98v1970h-98q-111 0 -111 107v82q0 106 111 106h790q111 0 111 -102v-82q0 -111 -111 -111h-352v-668h74q278 0 501 -94q224 -94 348 -280q125 -187 125 -441q0 -258 -131 -436t-346 -262t-452 -84h-557q-111 0 -111 106v82
q0 107 111 107z" />
    <glyph glyph-name="AE" unicode="&#x42b;" 
d="M807 295q237 0 405 118.5t168 377.5q0 270 -166 389q-165 118 -407 118h-86v-1003h86zM1819 2265q-111 0 -111 107v82q0 106 107 106h593q111 0 111 -106v-82q0 -107 -111 -107h-110v-1970h110q111 0 111 -107v-82q0 -106 -111 -106h-589q-111 0 -111 106v82
q0 107 111 107h139v1970h-139zM279 295h98v1970h-98q-111 0 -111 107v82q0 106 111 106h790q111 0 111 -102v-82q0 -111 -111 -111h-352v-668h74q278 0 501 -94q224 -94 348 -280q125 -187 125 -441q0 -258 -131 -436t-346 -262t-452 -84h-557q-111 0 -111 106v82
q0 107 111 107z" />
    <glyph glyph-name="Oslash" unicode="&#xdc;" 
d="M1577 1597q221 0 426 -104t330 -293q125 -188 125 -414q0 -221 -125 -403t-332 -283q-207 -100 -424 -100h-1225q-119 0 -119 98v103l-4 4q0 90 127 90h312v1970h-320q-115 0 -115 98v99q0 98 119 98h1168q114 0 114 -102v-103q0 -90 -118 -90h-512v-668h573zM1561 1298
h-557v-1003h557q200 0 354 151q153 152 153 353q0 200 -153.5 349.5t-353.5 149.5z" />
    <glyph glyph-name="Oslash" unicode="&#x42c;" 
d="M1577 1597q221 0 426 -104t330 -293q125 -188 125 -414q0 -221 -125 -403t-332 -283q-207 -100 -424 -100h-1225q-119 0 -119 98v103l-4 4q0 90 127 90h312v1970h-320q-115 0 -115 98v99q0 98 119 98h1168q114 0 114 -102v-103q0 -90 -118 -90h-512v-668h573zM1561 1298
h-557v-1003h557q200 0 354 151q153 152 153 353q0 200 -153.5 349.5t-353.5 149.5z" />
    <glyph glyph-name="infinity" unicode="&#xdd;" 
d="M2068 1262h-700v-222q0 -106 -86 -106h-115q-77 0 -77 102v693q0 122 86 122h106q86 0 86 -122v-205h700q0 176 -122 372q-123 197 -316 326q-192 129 -377 129q-254 0 -430 -129t-180 -342v-12q0 -197 -143 -197l-4 4h-86q-119 0 -119 90v693q0 151 106 151h111
q98 0 110 -98q0 -12 13 -12q4 0 16 4q123 73 287 112t311 39q373 0 647 -172q275 -172 416 -485.5t141 -718.5v-12q0 -340 -149.5 -645.5t-423.5 -487.5t-623 -182q-184 0 -381 57q-196 58 -366 170q-170 113 -273 273q0 98 140 98q110 0 159 -49q103 -99 334 -176
q232 -78 400 -78q213 0 399 141t294.5 370.5t108.5 467.5v37z" />
    <glyph glyph-name="infinity" unicode="&#x42d;" 
d="M2068 1262h-700v-222q0 -106 -86 -106h-115q-77 0 -77 102v693q0 122 86 122h106q86 0 86 -122v-205h700q0 176 -122 372q-123 197 -316 326q-192 129 -377 129q-254 0 -430 -129t-180 -342v-12q0 -197 -143 -197l-4 4h-86q-119 0 -119 90v693q0 151 106 151h111
q98 0 110 -98q0 -12 13 -12q4 0 16 4q123 73 287 112t311 39q373 0 647 -172q275 -172 416 -485.5t141 -718.5v-12q0 -340 -149.5 -645.5t-423.5 -487.5t-623 -182q-184 0 -381 57q-196 58 -366 170q-170 113 -273 273q0 98 140 98q110 0 159 -49q103 -99 334 -176
q232 -78 400 -78q213 0 399 141t294.5 370.5t108.5 467.5v37z" />
    <glyph glyph-name="plusminus" unicode="&#xde;" 
d="M1343 1323q5 -299 41 -535q37 -235 127 -380q91 -146 246 -146q148 0 242 155.5t133 389t39 467.5v102q0 221 -41 430t-133 342t-240 133q-147 0 -241.5 -151.5t-135.5 -368.5t-41 -418zM811 2265h-119v-774h316l-4 20q0 238 90 496t262 428t397 170q270 0 445 -195
q174 -194 251 -487q78 -293 78 -584v-24q0 -373 -78 -684q-77 -312 -251.5 -498t-440.5 -186l-4 -4q-299 0 -471 225t-231.5 514t-59.5 518h-299v-905h111q98 0 98 -107v-82q0 -106 -102 -106h-545q-107 0 -107 106v82q0 107 111 107h98v1970h-98q-111 0 -111 107v82
q0 106 107 106h557q90 0 90 -106v-82q0 -107 -90 -107z" />
    <glyph glyph-name="plusminus" unicode="&#x42e;" 
d="M1343 1323q5 -299 41 -535q37 -235 127 -380q91 -146 246 -146q148 0 242 155.5t133 389t39 467.5v102q0 221 -41 430t-133 342t-240 133q-147 0 -241.5 -151.5t-135.5 -368.5t-41 -418zM811 2265h-119v-774h316l-4 20q0 238 90 496t262 428t397 170q270 0 445 -195
q174 -194 251 -487q78 -293 78 -584v-24q0 -373 -78 -684q-77 -312 -251.5 -498t-440.5 -186l-4 -4q-299 0 -471 225t-231.5 514t-59.5 518h-299v-905h111q98 0 98 -107v-82q0 -106 -102 -106h-545q-107 0 -107 106v82q0 107 111 107h98v1970h-98q-111 0 -111 107v82
q0 106 107 106h557q90 0 90 -106v-82q0 -107 -90 -107z" />
    <glyph glyph-name="lessequal" unicode="&#xdf;" 
d="M807 1831q0 -189 143 -315q144 -127 328 -127h569v876h-598q-172 0 -307 -131t-135 -303zM2462 2560q110 0 110 -102v-91q0 -102 -118 -102h-263v-1970h263q118 0 118 -107v-86q0 -102 -114 -102h-848q-127 0 -127 106v95q0 94 127 94h241v799h-352q-86 0 -172 -80
t-164 -203l-422 -627q-127 -184 -192 -184h-320q-123 0 -123 106v99q0 90 123 90h152l479 680q98 160 180 172q-295 57 -452.5 227t-157.5 441l4 20q0 193 105 360q104 168 278 266.5t367 98.5h1278z" />
    <glyph glyph-name="lessequal" unicode="&#x42f;" 
d="M807 1831q0 -189 143 -315q144 -127 328 -127h569v876h-598q-172 0 -307 -131t-135 -303zM2462 2560q110 0 110 -102v-91q0 -102 -118 -102h-263v-1970h263q118 0 118 -107v-86q0 -102 -114 -102h-848q-127 0 -127 106v95q0 94 127 94h241v799h-352q-86 0 -172 -80
t-164 -203l-422 -627q-127 -184 -192 -184h-320q-123 0 -123 106v99q0 90 123 90h152l479 680q98 160 180 172q-295 57 -452.5 227t-157.5 441l4 20q0 193 105 360q104 168 278 266.5t367 98.5h1278z" />
    <glyph glyph-name="greaterequal" unicode="&#xe1;" 
d="M1343 1745q-237 0 -411 -96.5t-264 -264.5q-90 -167 -90 -376q0 -217 94 -392q94 -174 268 -268t403 -94q230 0 402 94t264 268q92 175 92 392q0 209 -88 376q-88 168 -260 264.5t-410 96.5zM2236 2736v-12q0 -139 -180 -182q-164 -39 -424 -39h-51h-524
q-217 0 -371 -162t-154 -363v-323l37 4q95 168 265 274q170 107 509 107q398 0 654 -160t364 -397q109 -238 109 -479v-9q0 -295 -119 -530.5t-373 -370.5t-630 -135q-377 0 -633 133t-379 368.5t-127 534.5v1000q0 221 121 415q121 195 319 310q199 114 416 114h524
q62 0 201 29t197 29h28q221 0 221 -156z" />
    <glyph glyph-name="greaterequal" unicode="&#x431;" 
d="M1343 1745q-237 0 -411 -96.5t-264 -264.5q-90 -167 -90 -376q0 -217 94 -392q94 -174 268 -268t403 -94q230 0 402 94t264 268q92 175 92 392q0 209 -88 376q-88 168 -260 264.5t-410 96.5zM2236 2736v-12q0 -139 -180 -182q-164 -39 -424 -39h-51h-524
q-217 0 -371 -162t-154 -363v-323l37 4q95 168 265 274q170 107 509 107q398 0 654 -160t364 -397q109 -238 109 -479v-9q0 -295 -119 -530.5t-373 -370.5t-630 -135q-377 0 -633 133t-379 368.5t-127 534.5v1000q0 221 121 415q121 195 319 310q199 114 416 114h524
q62 0 201 29t197 29h28q221 0 221 -156z" />
    <glyph glyph-name="yen" unicode="&#xe2;" 
d="M1565 1212q106 0 218.5 74t112.5 193q0 110 -104 165.5t-215 55.5h-578v-488h566zM1602 295q159 0 325 90t166 246q0 160 -149 225q-150 66 -285 66h-660v-627h603zM303 1999h1344q217 0 428 -141.5t211 -366.5q0 -107 -95 -223q-94 -117 -213 -150q197 -28 348.5 -151
t151.5 -312q0 -188 -119 -340q-118 -151 -299 -233q-180 -82 -352 -82h-1397q-110 0 -110 106v82q0 107 110 107h353v1405h-357q-110 0 -110 102v86q0 111 106 111z" />
    <glyph glyph-name="yen" unicode="&#x432;" 
d="M1565 1212q106 0 218.5 74t112.5 193q0 110 -104 165.5t-215 55.5h-578v-488h566zM1602 295q159 0 325 90t166 246q0 160 -149 225q-150 66 -285 66h-660v-627h603zM303 1999h1344q217 0 428 -141.5t211 -366.5q0 -107 -95 -223q-94 -117 -213 -150q197 -28 348.5 -151
t151.5 -312q0 -188 -119 -340q-118 -151 -299 -233q-180 -82 -352 -82h-1397q-110 0 -110 106v82q0 107 110 107h353v1405h-357q-110 0 -110 102v86q0 111 106 111z" />
    <glyph glyph-name="mu" unicode="&#xe3;" 
d="M291 1999h2060q148 0 148 -119v-680q0 -147 -103 -147h-102q-103 0 -103 147v500h-1097v-1405h450q111 0 111 -107v-82q0 -106 -111 -106h-1257q-111 0 -111 106v82q0 107 111 107h471v1405h-459q-119 0 -119 102v86q0 111 111 111z" />
    <glyph glyph-name="mu" unicode="&#x433;" 
d="M291 1999h2060q148 0 148 -119v-680q0 -147 -103 -147h-102q-103 0 -103 147v500h-1097v-1405h450q111 0 111 -107v-82q0 -106 -111 -106h-1257q-111 0 -111 106v82q0 107 111 107h471v1405h-459q-119 0 -119 102v86q0 111 111 111z" />
    <glyph glyph-name="partialdiff" unicode="&#xe4;" 
d="M1012 1696v-770q0 -135 -49.5 -340t-114.5 -291h1007v1405zM406 1700q-111 0 -111 102v86q0 111 111 111h1933q106 0 106 -111v-86q0 -102 -106 -102h-144v-1405h177q73 0 73 -74v-647q0 -135 -90 -135h-131q-86 0 -86 135v426h-1597v-426q0 -135 -90 -135h-132
q-90 0 -90 135v647q0 74 74 74h98q95 0 183 221t88 475v709h-266z" />
    <glyph glyph-name="partialdiff" unicode="&#x434;" 
d="M1012 1696v-770q0 -135 -49.5 -340t-114.5 -291h1007v1405zM406 1700q-111 0 -111 102v86q0 111 111 111h1933q106 0 106 -111v-86q0 -102 -106 -102h-144v-1405h177q73 0 73 -74v-647q0 -135 -90 -135h-131q-86 0 -86 135v426h-1597v-426q0 -135 -90 -135h-132
q-90 0 -90 135v647q0 74 74 74h98q95 0 183 221t88 475v709h-266z" />
    <glyph glyph-name="summation" unicode="&#xe6;" 
d="M1081 0q-106 0 -106 106v82q0 107 106 107h107v545l-152 102l-409 -647h69q111 0 111 -107v-82q0 -106 -111 -106h-532q-111 0 -111 106v82q0 107 111 107h78l569 885l-369 393q-94 94 -266 127q-106 16 -106 102v86q0 111 106 111h541q106 0 106 -111v-86
q0 -102 -110 -102h-74l549 -582v586h-111q-106 0 -106 106v86q0 103 106 103h520q111 0 111 -103v-86q0 -106 -106 -106h-115v-586l553 582h-74q-111 0 -111 102v86q0 111 107 111h541q106 0 106 -111v-86q0 -86 -106 -102q-176 -29 -267 -127l-368 -393l569 -885h74
q110 0 110 -107v-82q0 -106 -110 -106h-529q-110 0 -110 106v82q0 107 110 107h70l-410 647l-155 -102v-545h106q111 0 111 -107v-82q0 -106 -111 -106h-512z" />
    <glyph glyph-name="summation" unicode="&#x436;" 
d="M1081 0q-106 0 -106 106v82q0 107 106 107h107v545l-152 102l-409 -647h69q111 0 111 -107v-82q0 -106 -111 -106h-532q-111 0 -111 106v82q0 107 111 107h78l569 885l-369 393q-94 94 -266 127q-106 16 -106 102v86q0 111 106 111h541q106 0 106 -111v-86
q0 -102 -110 -102h-74l549 -582v586h-111q-106 0 -106 106v86q0 103 106 103h520q111 0 111 -103v-86q0 -106 -106 -106h-115v-586l553 582h-74q-111 0 -111 102v86q0 111 107 111h541q106 0 106 -111v-86q0 -86 -106 -102q-176 -29 -267 -127l-368 -393l569 -885h74
q110 0 110 -107v-82q0 -106 -110 -106h-529q-110 0 -110 106v82q0 107 110 107h70l-410 647l-155 -102v-545h106q111 0 111 -107v-82q0 -106 -111 -106h-512z" />
    <glyph glyph-name="product" unicode="&#xe7;" 
d="M1143 1196h266q143 0 299 94t156 226q0 167 -156 214.5t-365 47.5q-270 0 -419.5 -76t-218.5 -256q0 -115 -99 -115h-135q-115 0 -115 115v450q0 144 107 144h127q115 0 115 -119h40q37 49 183 100q145 52 424 52q331 0 530 -82t274.5 -207t75.5 -260q0 -156 -123 -256
q-122 -101 -319 -174q287 -99 409.5 -203.5t122.5 -308.5q0 -131 -104 -281q-104 -149 -334 -252q-229 -102 -569 -102q-205 0 -428 36.5t-381 122.5q-158 87 -158 222l4 4q0 131 168 131q127 0 221 -70q189 -86 312 -110.5t286 -24.5q213 0 408 82t195 246q0 159 -168 237
t-336 78h-283q-119 0 -119 103v81q0 111 107 111z" />
    <glyph glyph-name="product" unicode="&#x437;" 
d="M1143 1196h266q143 0 299 94t156 226q0 167 -156 214.5t-365 47.5q-270 0 -419.5 -76t-218.5 -256q0 -115 -99 -115h-135q-115 0 -115 115v450q0 144 107 144h127q115 0 115 -119h40q37 49 183 100q145 52 424 52q331 0 530 -82t274.5 -207t75.5 -260q0 -156 -123 -256
q-122 -101 -319 -174q287 -99 409.5 -203.5t122.5 -308.5q0 -131 -104 -281q-104 -149 -334 -252q-229 -102 -569 -102q-205 0 -428 36.5t-381 122.5q-158 87 -158 222l4 4q0 131 168 131q127 0 221 -70q189 -86 312 -110.5t286 -24.5q213 0 408 82t195 246q0 159 -168 237
t-336 78h-283q-119 0 -119 103v81q0 111 107 111z" />
    <glyph glyph-name="pi" unicode="&#xe8;" 
d="M1860 1602v98h-267q-106 0 -106 106v86q0 107 106 107h746q110 0 110 -107v-86q0 -106 -110 -106h-139v-1405h139q110 0 110 -107v-82q0 -106 -110 -106h-746q-106 0 -106 106v82q0 107 106 107h267v991l-1041 -803v-188h262q111 0 111 -107v-82q0 -106 -111 -106h-741
q-111 0 -111 106v82q0 107 111 107h139v1405h-139q-111 0 -111 106v86q0 107 111 107h741q111 0 111 -107v-86q0 -106 -111 -106h-262v-914z" />
    <glyph glyph-name="pi" unicode="&#x438;" 
d="M1860 1602v98h-267q-106 0 -106 106v86q0 107 106 107h746q110 0 110 -107v-86q0 -106 -110 -106h-139v-1405h139q110 0 110 -107v-82q0 -106 -110 -106h-746q-106 0 -106 106v82q0 107 106 107h267v991l-1041 -803v-188h262q111 0 111 -107v-82q0 -106 -111 -106h-741
q-111 0 -111 106v82q0 107 111 107h139v1405h-139q-111 0 -111 106v86q0 107 111 107h741q111 0 111 -107v-86q0 -106 -111 -106h-262v-914z" />
    <glyph glyph-name="integral" unicode="&#xe9;" 
d="M1004 2712q12 -78 100 -154t219 -76q4 0 12 4h8h9l8 -4q131 0 217 76t98 154q21 114 82 114h135q66 0 66 -98q0 -131 -139.5 -309t-479.5 -183q-340 5 -479 183t-139 309q0 98 65 98h136q61 0 82 -114zM1860 1602v98h-267q-106 0 -106 106v86q0 107 106 107h746
q110 0 110 -107v-86q0 -106 -110 -106h-139v-1405h139q110 0 110 -107v-82q0 -106 -110 -106h-746q-106 0 -106 106v82q0 107 106 107h267v991l-1041 -803v-188h262q111 0 111 -107v-82q0 -106 -111 -106h-741q-111 0 -111 106v82q0 107 111 107h139v1405h-139
q-111 0 -111 106v86q0 107 111 107h741q111 0 111 -107v-86q0 -106 -111 -106h-262v-914z" />
    <glyph glyph-name="integral" unicode="&#x439;" 
d="M1004 2712q12 -78 100 -154t219 -76q4 0 12 4h8h9l8 -4q131 0 217 76t98 154q21 114 82 114h135q66 0 66 -98q0 -131 -139.5 -309t-479.5 -183q-340 5 -479 183t-139 309q0 98 65 98h136q61 0 82 -114zM1860 1602v98h-267q-106 0 -106 106v86q0 107 106 107h746
q110 0 110 -107v-86q0 -106 -110 -106h-139v-1405h139q110 0 110 -107v-82q0 -106 -110 -106h-746q-106 0 -106 106v82q0 107 106 107h267v991l-1041 -803v-188h262q111 0 111 -107v-82q0 -106 -111 -106h-741q-111 0 -111 106v82q0 107 111 107h139v1405h-139
q-111 0 -111 106v86q0 107 111 107h741q111 0 111 -107v-86q0 -106 -111 -106h-262v-914z" />
    <glyph glyph-name="ordfeminine" unicode="&#xea;" 
d="M197 102v82q0 111 110 111h250v1405h-246q-110 0 -110 110v86q0 103 110 103h733q107 0 107 -103v-81q0 -115 -111 -115h-147v-529l631 541q-135 0 -135 103v81q0 103 110 103h717q102 0 102 -107v-86q0 -106 -110 -106h-107q-98 0 -225 -70q-195 -106 -195 -110v0
q5 0 80 36l-434 -372l815 -889h250q111 0 111 -107v-82q0 -106 -111 -106h-721q-102 0 -102 90v74q0 61 73 102q58 35 68 35q2 0 2 -2l-618 688l-193 -172v-520h135q111 0 111 -115v-82q0 -98 -107 -98h-733q-110 0 -110 102z" />
    <glyph glyph-name="ordfeminine" unicode="&#x43a;" 
d="M197 102v82q0 111 110 111h250v1405h-246q-110 0 -110 110v86q0 103 110 103h733q107 0 107 -103v-81q0 -115 -111 -115h-147v-529l631 541q-135 0 -135 103v81q0 103 110 103h717q102 0 102 -107v-86q0 -106 -110 -106h-107q-98 0 -225 -70q-195 -106 -195 -110v0
q5 0 80 36l-434 -372l815 -889h250q111 0 111 -107v-82q0 -106 -111 -106h-721q-102 0 -102 90v74q0 61 73 102q58 35 68 35q2 0 2 -2l-618 688l-193 -172v-520h135q111 0 111 -115v-82q0 -98 -107 -98h-733q-110 0 -110 102z" />
    <glyph glyph-name="ordmasculine" unicode="&#xeb;" 
d="M2232 1700v-1405h144q110 0 110 -107v-82q0 -106 -110 -106h-684q-107 0 -107 106v82q0 107 107 107h204v1405h-843v-709q0 -106 -39 -342q-39 -235 -162 -448t-344 -213h-164q-151 0 -151 118v66q0 123 155 123h66q127 0 215 217t88 459v729h-258q-111 0 -111 106v86
q0 107 111 107h1917q110 0 110 -107v-86q0 -106 -110 -106h-144z" />
    <glyph glyph-name="ordmasculine" unicode="&#x43b;" 
d="M2232 1700v-1405h144q110 0 110 -107v-82q0 -106 -110 -106h-684q-107 0 -107 106v82q0 107 107 107h204v1405h-843v-709q0 -106 -39 -342q-39 -235 -162 -448t-344 -213h-164q-151 0 -151 118v66q0 123 155 123h66q127 0 215 217t88 459v729h-258q-111 0 -111 106v86
q0 107 111 107h1917q110 0 110 -107v-86q0 -106 -110 -106h-144z" />
    <glyph glyph-name="Omega" unicode="&#xec;" 
d="M2355 1700v-1405h172q111 0 111 -107v-82q0 -106 -111 -106h-741q-107 0 -107 102v82q0 111 107 111h233v1282l-463 -1135q-45 -131 -131 -131h-147q-90 0 -135 119l-484 1143v-1278h275q110 0 110 -111v-82q0 -102 -106 -102h-791q-106 0 -106 102v82q0 111 106 111h177
v1405h-131q-111 0 -111 106v86q0 107 111 107h569q98 0 151 -148l447 -1216l455 1208q53 156 143 156h528q107 0 107 -103v-86q0 -110 -111 -110h-127z" />
    <glyph glyph-name="Omega" unicode="&#x43c;" 
d="M2355 1700v-1405h172q111 0 111 -107v-82q0 -106 -111 -106h-741q-107 0 -107 102v82q0 111 107 111h233v1282l-463 -1135q-45 -131 -131 -131h-147q-90 0 -135 119l-484 1143v-1278h275q110 0 110 -111v-82q0 -102 -106 -102h-791q-106 0 -106 102v82q0 111 106 111h177
v1405h-131q-111 0 -111 106v86q0 107 111 107h569q98 0 151 -148l447 -1216l455 1208q53 156 143 156h528q107 0 107 -103v-86q0 -110 -111 -110h-127z" />
    <glyph glyph-name="ae" unicode="&#xed;" 
d="M1860 1208v492h-267q-106 0 -106 106v86q0 107 106 107h746q110 0 110 -107v-86q0 -106 -110 -106h-139v-1405h139q110 0 110 -107v-82q0 -106 -110 -106h-746q-106 0 -106 106v82q0 107 106 107h267v623h-1041v-623h262q111 0 111 -107v-82q0 -106 -111 -106h-741
q-111 0 -111 106v82q0 107 111 107h139v1405h-139q-111 0 -111 106v86q0 107 111 107h741q111 0 111 -107v-86q0 -106 -111 -106h-262v-492h1041z" />
    <glyph glyph-name="ae" unicode="&#x43d;" 
d="M1860 1208v492h-267q-106 0 -106 106v86q0 107 106 107h746q110 0 110 -107v-86q0 -106 -110 -106h-139v-1405h139q110 0 110 -107v-82q0 -106 -110 -106h-746q-106 0 -106 106v82q0 107 106 107h267v623h-1041v-623h262q111 0 111 -107v-82q0 -106 -111 -106h-741
q-111 0 -111 106v82q0 107 111 107h139v1405h-139q-111 0 -111 106v86q0 107 111 107h741q111 0 111 -107v-86q0 -106 -111 -106h-262v-492h1041z" />
    <glyph glyph-name="oslash" unicode="&#xef;" 
d="M340 1999h1999q110 0 110 -107v-86q0 -106 -110 -106h-139v-1405h139q110 0 110 -107v-82q0 -106 -110 -106h-746q-106 0 -106 106v82q0 107 106 107h267v1405h-1041v-1405h262q111 0 111 -107v-82q0 -106 -111 -106h-741q-111 0 -111 106v82q0 107 111 107h139v1405
h-139q-111 0 -111 106v86q0 107 111 107z" />
    <glyph glyph-name="oslash" unicode="&#x43f;" 
d="M340 1999h1999q110 0 110 -107v-86q0 -106 -110 -106h-139v-1405h139q110 0 110 -107v-82q0 -106 -110 -106h-746q-106 0 -106 106v82q0 107 106 107h267v1405h-1041v-1405h262q111 0 111 -107v-82q0 -106 -111 -106h-741q-111 0 -111 106v82q0 107 111 107h139v1405
h-139q-111 0 -111 106v86q0 107 111 107z" />
    <glyph glyph-name="questiondown" unicode="&#xf2;" 
d="M2351 1999q90 0 90 -90l33 -832q0 -114 -98 -114h-127q-99 0 -99 114l-20 623h-623v-1405h475q119 0 119 -107v-86q0 -102 -102 -102h-1319q-102 0 -102 102v86q0 107 118 107h475v1405h-622l-21 -623q0 -114 -98 -114h-127q-98 0 -98 114l33 832q0 90 90 90h2023z" />
    <glyph glyph-name="questiondown" unicode="&#x442;" 
d="M2351 1999q90 0 90 -90l33 -832q0 -114 -98 -114h-127q-99 0 -99 114l-20 623h-623v-1405h475q119 0 119 -107v-86q0 -102 -102 -102h-1319q-102 0 -102 102v86q0 107 118 107h475v1405h-622l-21 -623q0 -114 -98 -114h-127q-98 0 -98 114l33 832q0 90 90 90h2023z" />
    <glyph glyph-name="exclamdown" unicode="&#xf3;" 
d="M254 1999h766q110 0 110 -111v-86q0 -102 -110 -102h-225l581 -1200l582 1200h-229q-115 0 -115 102v86q0 111 110 111h701q110 0 110 -111v-86q0 -102 -110 -102h-94l-1131 -2261h234q110 0 110 -107v-82q0 -106 -110 -106h-1123q-110 0 -110 106v82q0 107 110 107h516
l365 700l-795 1561h-143q-111 0 -111 102v86q0 111 111 111z" />
    <glyph glyph-name="exclamdown" unicode="&#x443;" 
d="M254 1999h766q110 0 110 -111v-86q0 -102 -110 -102h-225l581 -1200l582 1200h-229q-115 0 -115 102v86q0 111 110 111h701q110 0 110 -111v-86q0 -102 -110 -102h-94l-1131 -2261h234q110 0 110 -107v-82q0 -106 -110 -106h-1123q-110 0 -110 106v82q0 107 110 107h516
l365 700l-795 1561h-143q-111 0 -111 102v86q0 111 111 111z" />
    <glyph glyph-name="logicalnot" unicode="&#xf4;" 
d="M463 983q0 -299 63 -506q64 -207 285 -207q233 0 303 197t70 520q0 324 -74 533t-299 213q-217 0 -283 -224q-65 -223 -65 -526zM2212 983q0 307 -64 528q-63 222 -280 222q-226 -4 -301.5 -215t-75.5 -531q0 -319 71.5 -518t305.5 -199q221 0 282 207q62 207 62 506z
M1176 -561v754h-33q-37 -99 -154 -160.5t-244 -61.5q-229 0 -364 133q-135 134 -184.5 355t-49.5 516q0 323 57.5 561t182.5 367t313 129q160 0 283 -64q123 -63 160 -162l28 -4v729h-499q-107 0 -107 103v82q0 110 107 110h774q61 0 61 -61v-963l29 4q37 99 160 162
q123 64 282 64q189 0 314 -129t182 -367t57 -561q0 -295 -49 -516t-184 -355q-135 -133 -365 -133q-127 0 -243.5 61.5t-153.5 160.5h-33v-754h307q111 0 111 -107v-82q0 -106 -111 -106h-942q-110 0 -110 106v82q0 107 110 107h308z" />
    <glyph glyph-name="logicalnot" unicode="&#x444;" 
d="M463 983q0 -299 63 -506q64 -207 285 -207q233 0 303 197t70 520q0 324 -74 533t-299 213q-217 0 -283 -224q-65 -223 -65 -526zM2212 983q0 307 -64 528q-63 222 -280 222q-226 -4 -301.5 -215t-75.5 -531q0 -319 71.5 -518t305.5 -199q221 0 282 207q62 207 62 506z
M1176 -561v754h-33q-37 -99 -154 -160.5t-244 -61.5q-229 0 -364 133q-135 134 -184.5 355t-49.5 516q0 323 57.5 561t182.5 367t313 129q160 0 283 -64q123 -63 160 -162l28 -4v729h-499q-107 0 -107 103v82q0 110 107 110h774q61 0 61 -61v-963l29 4q37 99 160 162
q123 64 282 64q189 0 314 -129t182 -367t57 -561q0 -295 -49 -516t-184 -355q-135 -133 -365 -133q-127 0 -243.5 61.5t-153.5 160.5h-33v-754h307q111 0 111 -107v-82q0 -106 -111 -106h-942q-110 0 -110 106v82q0 107 110 107h308z" />
    <glyph glyph-name="radical" unicode="&#xf6;" 
d="M229 106v82q0 107 111 107h139v1405h-139q-111 0 -111 106v86q0 107 111 107h741q111 0 111 -107v-86q0 -106 -111 -106h-262v-1405h1041v1405h-267q-106 0 -106 106v86q0 107 106 107h746q110 0 110 -107v-86q0 -106 -110 -106h-139v-1405h139q106 0 106 -90v-631
q0 -135 -90 -135h-131q-86 0 -86 135v426h-1798q-111 0 -111 106z" />
    <glyph glyph-name="radical" unicode="&#x446;" 
d="M229 106v82q0 107 111 107h139v1405h-139q-111 0 -111 106v86q0 107 111 107h741q111 0 111 -107v-86q0 -106 -111 -106h-262v-1405h1041v1405h-267q-106 0 -106 106v86q0 107 106 107h746q110 0 110 -107v-86q0 -106 -110 -106h-139v-1405h139q106 0 106 -90v-631
q0 -135 -90 -135h-131q-86 0 -86 135v426h-1798q-111 0 -111 106z" />
    <glyph glyph-name="florin" unicode="&#xf7;" 
d="M1847 1700h-213q-110 0 -110 106v86q0 107 110 107h738q110 0 110 -107v-86q0 -106 -110 -106h-185v-1405h180q115 0 115 -102v-82q0 -111 -106 -111h-946q-111 0 -111 106v82q0 107 111 107h417v487h-864q-192 0 -365 160q-172 160 -172 369v389h-143q-110 0 -110 106
v86q0 107 110 107h741q111 0 111 -107v-86q0 -106 -111 -106h-262v-365q0 -106 78 -182t172 -76h815v623z" />
    <glyph glyph-name="florin" unicode="&#x447;" 
d="M1847 1700h-213q-110 0 -110 106v86q0 107 110 107h738q110 0 110 -107v-86q0 -106 -110 -106h-185v-1405h180q115 0 115 -102v-82q0 -111 -106 -111h-946q-111 0 -111 106v82q0 107 111 107h417v487h-864q-192 0 -365 160q-172 160 -172 369v389h-143q-110 0 -110 106
v86q0 107 110 107h741q111 0 111 -107v-86q0 -106 -111 -106h-262v-365q0 -106 78 -182t172 -76h815v623z" />
    <glyph glyph-name="approxequal" unicode="&#xf8;" 
d="M1499 1704v-1409h455v1409h-62q-94 0 -94 106v86q0 103 94 103h512q90 0 90 -103v-86q0 -106 -94 -106h-114v-1409h102q102 0 102 -107v-82q0 -106 -102 -106h-2097q-103 0 -103 106v82q0 107 103 107h102v1409h-106q-94 0 -94 106v86q0 103 90 103h512q90 0 90 -103v-86
q0 -106 -90 -106h-70v-1409h459v1409h-70q-94 0 -94 106v86q0 103 94 103h459q94 0 94 -103v-86q0 -106 -94 -106h-74z" />
    <glyph glyph-name="approxequal" unicode="&#x448;" 
d="M1499 1704v-1409h455v1409h-62q-94 0 -94 106v86q0 103 94 103h512q90 0 90 -103v-86q0 -106 -94 -106h-114v-1409h102q102 0 102 -107v-82q0 -106 -102 -106h-2097q-103 0 -103 106v82q0 107 103 107h102v1409h-106q-94 0 -94 106v86q0 103 90 103h512q90 0 90 -103v-86
q0 -106 -90 -106h-70v-1409h459v1409h-70q-94 0 -94 106v86q0 103 94 103h459q94 0 94 -103v-86q0 -106 -94 -106h-74z" />
    <glyph glyph-name="Delta" unicode="&#xf9;" 
d="M1667 1810q0 -106 -94 -106h-74v-1409h455v1409h-62q-94 0 -94 106v86q0 103 94 103h512q90 0 90 -103v-86q0 -106 -94 -106h-114v-1409h102q102 0 102 -107v-618q0 -131 -86 -131h-135q-86 0 -86 135v426h-1892q-103 0 -103 106v82q0 107 103 107h102v1409h-106
q-94 0 -94 106v86q0 103 90 103h512q90 0 90 -103v-86q0 -106 -90 -106h-70v-1409h459v1409h-70q-94 0 -94 106v86q0 103 94 103h459q94 0 94 -103v-86z" />
    <glyph glyph-name="Delta" unicode="&#x449;" 
d="M1667 1810q0 -106 -94 -106h-74v-1409h455v1409h-62q-94 0 -94 106v86q0 103 94 103h512q90 0 90 -103v-86q0 -106 -94 -106h-114v-1409h102q102 0 102 -107v-618q0 -131 -86 -131h-135q-86 0 -86 135v426h-1892q-103 0 -103 106v82q0 107 103 107h102v1409h-106
q-94 0 -94 106v86q0 103 90 103h512q90 0 90 -103v-86q0 -106 -90 -106h-70v-1409h459v1409h-70q-94 0 -94 106v86q0 103 94 103h459q94 0 94 -103v-86z" />
    <glyph glyph-name="guillemotleft" unicode="&#xfa;" 
d="M2540 655q0 -209 -103 -358q-102 -150 -280.5 -223.5t-399.5 -73.5h-1057q-135 0 -135 106v87q0 102 127 102h258v1405h-504v-381q0 -135 -90 -135h-131q-90 0 -90 135v561q0 119 148 119h1515q152 0 152 -103v-90q0 -106 -152 -106h-512v-402h447q225 0 409 -73
q185 -74 291 -219q107 -146 107 -347v-4zM2142 659q0 185 -123 267t-278 82h-455v-713h438q189 0 303.5 90t114.5 274z" />
    <glyph glyph-name="guillemotleft" unicode="&#x44a;" 
d="M2540 655q0 -209 -103 -358q-102 -150 -280.5 -223.5t-399.5 -73.5h-1057q-135 0 -135 106v87q0 102 127 102h258v1405h-504v-381q0 -135 -90 -135h-131q-90 0 -90 135v561q0 119 148 119h1515q152 0 152 -103v-90q0 -106 -152 -106h-512v-402h447q225 0 409 -73
q185 -74 291 -219q107 -146 107 -347v-4zM2142 659q0 185 -123 267t-278 82h-455v-713h438q189 0 303.5 90t114.5 274z" />
    <glyph glyph-name="guillemotright" unicode="&#xfb;" 
d="M1073 1700h-368v-369h307q192 0 366 -67.5t282.5 -213t108.5 -362.5q0 -237 -141 -393t-328 -225q-186 -70 -313 -70h-708q-111 0 -111 106v82q0 107 111 107h98v1405h-94q-111 0 -111 106v86q0 107 111 107h790q107 0 107 -103v-86q0 -110 -107 -110zM705 1036v-741h245
q135 0 283 100q147 101 147 285q0 147 -131 251.5t-303 104.5h-241zM1970 295v1405h-147q-111 0 -111 106v86q0 107 107 107h594q110 0 110 -107v-86q0 -106 -110 -106h-115v-1405h110q111 0 111 -107v-82q0 -106 -111 -106h-589q-111 0 -111 106v82q0 107 111 107h151z" />
    <glyph glyph-name="guillemotright" unicode="&#x44b;" 
d="M1073 1700h-368v-369h307q192 0 366 -67.5t282.5 -213t108.5 -362.5q0 -237 -141 -393t-328 -225q-186 -70 -313 -70h-708q-111 0 -111 106v82q0 107 111 107h98v1405h-94q-111 0 -111 106v86q0 107 111 107h790q107 0 107 -103v-86q0 -110 -107 -110zM705 1036v-741h245
q135 0 283 100q147 101 147 285q0 147 -131 251.5t-303 104.5h-241zM1970 295v1405h-147q-111 0 -111 106v86q0 107 107 107h594q110 0 110 -107v-86q0 -106 -110 -106h-115v-1405h110q111 0 111 -107v-82q0 -106 -111 -106h-589q-111 0 -111 106v82q0 107 111 107h151z" />
    <glyph glyph-name="ellipsis" unicode="&#xfc;" 
d="M1004 1004v-709h557q225 0 356 86t131 278q0 181 -137 263t-305 82h-602zM668 1700h-320q-115 0 -115 98v98q0 103 119 103h1168q114 0 114 -103v-102q0 -94 -118 -94h-512v-402h573q225 0 426 -73.5t321 -218.5q121 -146 121 -347v-4q0 -204 -123 -354
q-122 -149 -321 -225t-424 -76h-1225q-119 0 -119 98v103l-4 4q0 90 127 90h312v1405z" />
    <glyph glyph-name="ellipsis" unicode="&#x44c;" 
d="M1004 1004v-709h557q225 0 356 86t131 278q0 181 -137 263t-305 82h-602zM668 1700h-320q-115 0 -115 98v98q0 103 119 103h1168q114 0 114 -103v-102q0 -94 -118 -94h-512v-402h573q225 0 426 -73.5t321 -218.5q121 -146 121 -347v-4q0 -204 -123 -354
q-122 -149 -321 -225t-424 -76h-1225q-119 0 -119 98v103l-4 4q0 90 127 90h312v1405z" />
    <glyph glyph-name="nonbreakingspace" unicode="&#xfd;" 
d="M586 590q168 -164 344 -234q176 -69 385 -77q287 4 495 196q209 193 209 443h-917q-119 0 -119 73v119q0 86 119 86h901q-21 221 -219.5 370.5t-501.5 149.5q-250 0 -399 -117q-150 -116 -265 -317q-24 -82 -81 -82h-144q-86 0 -86 107v573q0 131 119 131h86
q123 0 123 -98v-49q188 106 346 141t342 35q336 0 580 -144q243 -143 366 -387q123 -243 123 -530q0 -303 -147 -537q-148 -233 -390 -358q-241 -125 -516 -125q-348 0 -604 121t-379 256q-69 94 -69 156q0 49 28 73q37 62 115 62q21 0 57 -4q33 -5 37 -5z" />
    <glyph glyph-name="nonbreakingspace" unicode="&#x44d;" 
d="M586 590q168 -164 344 -234q176 -69 385 -77q287 4 495 196q209 193 209 443h-917q-119 0 -119 73v119q0 86 119 86h901q-21 221 -219.5 370.5t-501.5 149.5q-250 0 -399 -117q-150 -116 -265 -317q-24 -82 -81 -82h-144q-86 0 -86 107v573q0 131 119 131h86
q123 0 123 -98v-49q188 106 346 141t342 35q336 0 580 -144q243 -143 366 -387q123 -243 123 -530q0 -303 -147 -537q-148 -233 -390 -358q-241 -125 -516 -125q-348 0 -604 121t-379 256q-69 94 -69 156q0 49 28 73q37 62 115 62q21 0 57 -4q33 -5 37 -5z" />
    <glyph glyph-name="Agrave" unicode="&#xfe;" 
d="M1733 1724q-246 0 -330 -223t-84 -551q0 -270 94 -477t328 -207q233 0 325 211q93 211 93 518q0 291 -91 510q-90 219 -335 219zM979 1212q0 127 75.5 328t245.5 352q170 152 424 152q271 0 449 -154q178 -153 258 -401t80 -526q0 -246 -82 -484q-82 -237 -258 -387
q-176 -149 -430 -149h-4q-250 0 -424 135t-258 354t-84 469l4 17h-266v-623h110q107 0 107 -107v-82q0 -106 -111 -106h-536q-111 0 -111 106v82q0 107 111 107h98v1405h-98q-111 0 -111 106v86q0 107 106 107h549q103 0 103 -107v-86q0 -106 -111 -106h-106v-488h270z" />
    <glyph glyph-name="Agrave" unicode="&#x44e;" 
d="M1733 1724q-246 0 -330 -223t-84 -551q0 -270 94 -477t328 -207q233 0 325 211q93 211 93 518q0 291 -91 510q-90 219 -335 219zM979 1212q0 127 75.5 328t245.5 352q170 152 424 152q271 0 449 -154q178 -153 258 -401t80 -526q0 -246 -82 -484q-82 -237 -258 -387
q-176 -149 -430 -149h-4q-250 0 -424 135t-258 354t-84 469l4 17h-266v-623h110q107 0 107 -107v-82q0 -106 -111 -106h-536q-111 0 -111 106v82q0 107 111 107h98v1405h-98q-111 0 -111 106v86q0 107 106 107h549q103 0 103 -107v-86q0 -106 -111 -106h-106v-488h270z" />
    <glyph glyph-name="Atilde" unicode="&#xff;" 
d="M1245 1094h602v606h-630q-136 0 -254.5 -80t-118.5 -203q0 -143 131 -233t270 -90zM1208 1999h1254q110 0 110 -107v-86q0 -106 -114 -106h-271v-1405h275q110 0 110 -107v-82q0 -106 -98 -106h-885q-110 0 -110 106v82q0 107 110 107h258v504h-368q-66 0 -136 -58
l-741 -716q-20 -25 -53 -25h-332q-111 0 -111 106v82q0 107 111 107h168l606 532l-16 37q-205 0 -367 170t-162 355q0 274 223.5 442t538.5 168z" />
    <glyph glyph-name="Atilde" unicode="&#x44f;" 
d="M1245 1094h602v606h-630q-136 0 -254.5 -80t-118.5 -203q0 -143 131 -233t270 -90zM1208 1999h1254q110 0 110 -107v-86q0 -106 -114 -106h-271v-1405h275q110 0 110 -107v-82q0 -106 -98 -106h-885q-110 0 -110 106v82q0 107 110 107h258v504h-368q-66 0 -136 -58
l-741 -716q-20 -25 -53 -25h-332q-111 0 -111 106v82q0 107 111 107h168l606 532l-16 37q-205 0 -367 170t-162 355q0 274 223.5 442t538.5 168z" />
    <glyph glyph-name="Otilde" unicode="&#x2018;" 
d="M1487 2757q29 77 102 77q17 0 37 -4l180 -73q45 -21 45 -78q0 -21 -8 -62l-287 -1093q0 -74 -69 -99h-545q-53 0 -53 62q0 20 8 53z" />
    <glyph glyph-name="OE" unicode="&#x2019;" 
d="M1225 1503q-37 -82 -107 -82q-20 0 -37 9l-180 73q-45 25 -45 78q0 8 4 29l8 32l287 1094q0 74 66 98h548q46 0 46 -61q0 -25 -9 -57l4 4z" />
    <glyph glyph-name="oe" unicode="&#x201c;" 
d="M1921 2748q33 78 102 78q21 0 41 -4l181 -74q45 -20 45 -77q0 -25 -9 -58l-286 -1097q0 -74 -70 -99h-545q-53 0 -53 62q0 20 8 53zM868 2748q29 78 103 78q16 0 37 -4l180 -74q45 -20 45 -77q0 -25 -8 -58l-287 -1097q0 -70 -66 -99h-548q-54 0 -54 62q0 20 9 53z" />
    <glyph glyph-name="endash" unicode="&#x201d;" 
d="M668 1499q-37 -82 -107 -82q-20 0 -37 8l-180 74q-49 25 -49 78q0 8 4 29l8 32l287 1094q0 74 70 98h544q49 0 49 -61q0 -25 -8 -53h4zM1720 1499q-37 -82 -106 -82q-21 0 -33 8l-184 74q-45 25 -45 78q0 8 4 29l8 32l287 1094q0 70 65 98h549q45 0 45 -61q0 -25 -4 -53z
" />
    <glyph glyph-name="emdash" horiz-adv-x="2679" 
d="M0 0v2679h2679v-2679h-2679z" />
    <glyph glyph-name="quotedblleft" unicode="&#x2013;" 
d="M2011 1192q107 0 107 -86v-238q0 -86 -95 -86h-1372q-98 0 -98 82v242q0 86 102 86h1356z" />
    <glyph glyph-name="quotedblright" unicode="&#x2014;" 
d="M2396 786h-2105q-98 0 -98 82v242q0 86 102 86h2089q106 0 106 -86v-238q0 -86 -94 -86z" />
    <glyph glyph-name="quoteleft" unicode="&#x2219;" horiz-adv-x="2675" 
d="M1294 1159q-114 0 -231 98q-117 99 -117 213v140q0 119 115 213t225 94h176q111 0 225.5 -94t114.5 -213v-140q0 -114 -116 -213q-117 -98 -232 -98h-160z" />
    <glyph glyph-name="nbspace.0" unicode="&#xa0;" 
 />
    <glyph glyph-name="Agrave.0" unicode="&#xc0;" 
d="M1307 2269l-418 -1159h872zM795 815l-193 -520h316q135 0 135 -102v-82q0 -111 -135 -111h-799q-119 0 -119 111v82q0 102 119 102h147l725 1970h-397q-148 0 -148 107v82q0 106 148 106h852q110 0 156 -152l852 -2113h118q103 0 103 -98v-91q0 -106 -103 -106h-819
q-111 61 -111 106v82q0 107 115 107h320l-209 520h-1073z" />
    <glyph glyph-name="Agrave.0" unicode="&#x410;" 
d="M1307 2269l-418 -1159h872zM795 815l-193 -520h316q135 0 135 -102v-82q0 -111 -135 -111h-799q-119 0 -119 111v82q0 102 119 102h147l725 1970h-397q-148 0 -148 107v82q0 106 148 106h852q110 0 156 -152l852 -2113h118q103 0 103 -98v-91q0 -106 -103 -106h-819
q-111 61 -111 106v82q0 107 115 107h320l-209 520h-1073z" />
    <glyph glyph-name="Acircumflex" unicode="&#xc2;" 
d="M1991 1372v-24q213 -29 350 -207t137 -400v-12q0 -201 -92 -356.5t-262 -251.5t-383 -121h-1422q-110 0 -110 111v82q0 102 110 102h222v1970h-222q-110 0 -110 107v82q0 106 110 106h1283q282 0 493 -195q211 -194 211 -481q0 -164 -76 -305t-239 -207zM881 2265v-799
h618q168 0 299 125t131 289q0 156 -114 270q-115 115 -271 115h-663zM1593 295q222 12 361 112.5t139 325.5q0 185 -135 311q-135 127 -316 127h-761v-876h712z" />
    <glyph glyph-name="Acircumflex" unicode="&#x412;" 
d="M1991 1372v-24q213 -29 350 -207t137 -400v-12q0 -201 -92 -356.5t-262 -251.5t-383 -121h-1422q-110 0 -110 111v82q0 102 110 102h222v1970h-222q-110 0 -110 107v82q0 106 110 106h1283q282 0 493 -195q211 -194 211 -481q0 -164 -76 -305t-239 -207zM881 2265v-799
h618q168 0 299 125t131 289q0 156 -114 270q-115 115 -271 115h-663zM1593 295q222 12 361 112.5t139 325.5q0 185 -135 311q-135 127 -316 127h-761v-876h712z" />
    <glyph glyph-name="Aring.0" unicode="&#xc5;" 
d="M238 106v82q0 107 118 107h283v1970h-291q-110 0 -110 107v82q0 106 110 106h1987q102 0 102 -102v-652q0 -114 -102 -114h-103q-102 0 -102 118v455h-1155v-741h561v205q0 122 98 122h90q91 0 91 -122v-680q0 -115 -91 -115h-110q-78 0 -78 115v213h-561v-967h1155v491
q0 115 119 115h82q106 0 106 -110v-701q0 -90 -102 -90h-1979q-118 0 -118 106z" />
    <glyph glyph-name="Aring.0" unicode="&#x415;" 
d="M238 106v82q0 107 118 107h283v1970h-291q-110 0 -110 107v82q0 106 110 106h1987q102 0 102 -102v-652q0 -114 -102 -114h-103q-102 0 -102 118v455h-1155v-741h561v205q0 122 98 122h90q91 0 91 -122v-680q0 -115 -91 -115h-110q-78 0 -78 115v213h-561v-967h1155v491
q0 115 119 115h82q106 0 106 -110v-701q0 -90 -102 -90h-1979q-118 0 -118 106z" />
    <glyph glyph-name="Ecircumflex" unicode="&#xca;" 
d="M2097 0q-94 0 -131 139l-295 537q-143 254 -260 377t-301 147l-233 -237v-668h262q110 0 110 -107v-82q0 -106 -102 -106h-877q-110 0 -110 102v82q0 111 106 111h275v1970h-275q-110 0 -110 107v82q0 106 110 106h873q110 0 110 -106v-82q0 -107 -106 -107h-266v-893
l897 893h-164q-111 0 -111 107v82q0 106 111 106h725q110 0 110 -106v-82q0 -107 -110 -107h-140l-843 -823q135 -21 280 -150q146 -129 223 -280l410 -717h143q111 0 111 -107v-82q0 -106 -106 -106h-316z" />
    <glyph glyph-name="Ecircumflex" unicode="&#x41a;" 
d="M2097 0q-94 0 -131 139l-295 537q-143 254 -260 377t-301 147l-233 -237v-668h262q110 0 110 -107v-82q0 -106 -102 -106h-877q-110 0 -110 102v82q0 111 106 111h275v1970h-275q-110 0 -110 107v82q0 106 110 106h873q110 0 110 -106v-82q0 -107 -106 -107h-266v-893
l897 893h-164q-111 0 -111 107v82q0 106 111 106h725q110 0 110 -106v-82q0 -107 -110 -107h-140l-843 -823q135 -21 280 -150q146 -129 223 -280l410 -717h143q111 0 111 -107v-82q0 -106 -106 -106h-316z" />
    <glyph glyph-name="Igrave" unicode="&#xcc;" 
d="M254 2560h508q86 0 147 -172l451 -1344l450 1364q50 152 148 152h528q107 0 107 -102v-82q0 -111 -119 -111h-119v-1970h172q111 0 111 -107v-82q0 -106 -111 -106h-741q-107 0 -107 102v82q0 111 107 111h233v1835l-458 -1245q0 -123 -131 -123h-152q-139 0 -139 123
l-480 1261v-1851h275q110 0 110 -111v-82q0 -102 -106 -102h-791q-106 0 -106 102v82q0 111 106 111h177v1970h-119q-111 0 -111 107v82q0 106 111 106h49z" />
    <glyph glyph-name="Igrave" unicode="&#x41c;" 
d="M254 2560h508q86 0 147 -172l451 -1344l450 1364q50 152 148 152h528q107 0 107 -102v-82q0 -111 -119 -111h-119v-1970h172q111 0 111 -107v-82q0 -106 -111 -106h-741q-107 0 -107 102v82q0 111 107 111h233v1835l-458 -1245q0 -123 -131 -123h-152q-139 0 -139 123
l-480 1261v-1851h275q110 0 110 -111v-82q0 -102 -106 -102h-791q-106 0 -106 102v82q0 111 106 111h177v1970h-119q-111 0 -111 107v82q0 106 111 106h49z" />
    <glyph glyph-name="Iacute" unicode="&#xcd;" 
d="M1860 1200h-1041v-905h262q111 0 111 -107v-82q0 -106 -111 -106h-741q-111 0 -111 106v82q0 107 111 107h139v1970h-139q-111 0 -111 107v82q0 106 111 106h741q111 0 111 -106v-82q0 -107 -111 -107h-262v-774h1041v774h-267q-106 0 -106 107v82q0 106 106 106h746
q110 0 110 -106v-82q0 -107 -110 -107h-139v-1970h139q110 0 110 -107v-82q0 -106 -110 -106h-746q-106 0 -106 106v82q0 107 106 107h267v905z" />
    <glyph glyph-name="Iacute" unicode="&#x41d;" 
d="M1860 1200h-1041v-905h262q111 0 111 -107v-82q0 -106 -111 -106h-741q-111 0 -111 106v82q0 107 111 107h139v1970h-139q-111 0 -111 107v82q0 106 111 106h741q111 0 111 -106v-82q0 -107 -111 -107h-262v-774h1041v774h-267q-106 0 -106 107v82q0 106 106 106h746
q110 0 110 -106v-82q0 -107 -110 -107h-139v-1970h139q110 0 110 -107v-82q0 -106 -110 -106h-746q-106 0 -106 106v82q0 107 106 107h267v905z" />
    <glyph glyph-name="Icircumflex" unicode="&#xce;" 
d="M1339 238q246 0 424 118q179 119 269 358.5t90 579.5q0 287 -78 524.5t-256 381t-449 143.5q-270 0 -448 -143.5t-260 -383t-82 -522.5q0 -340 92 -577.5t270 -358.5q179 -120 428 -120zM1339 -53q-360 0 -628.5 180t-407.5 489q-139 310 -139 674q0 332 123 641
q123 310 389 506q266 197 663 197q402 0 666 -197q264 -196 385 -506q121 -309 121 -641q0 -368 -137 -676q-138 -307 -404 -487t-631 -180z" />
    <glyph glyph-name="Icircumflex" unicode="&#x41e;" 
d="M1339 238q246 0 424 118q179 119 269 358.5t90 579.5q0 287 -78 524.5t-256 381t-449 143.5q-270 0 -448 -143.5t-260 -383t-82 -522.5q0 -340 92 -577.5t270 -358.5q179 -120 428 -120zM1339 -53q-360 0 -628.5 180t-407.5 489q-139 310 -139 674q0 332 123 641
q123 310 389 506q266 197 663 197q402 0 666 -197q264 -196 385 -506q121 -309 121 -641q0 -368 -137 -676q-138 -307 -404 -487t-631 -180z" />
    <glyph glyph-name="Eth" unicode="&#xd0;" 
d="M1573 963h-574v-668h512q119 0 119 -90v-103q0 -102 -114 -102h-1168q-119 0 -119 98v99q0 98 115 98h320v1970h-312q-127 0 -127 86l4 8v103q0 98 119 98h1225q217 0 424 -100.5t332 -282.5t125 -403q0 -226 -125 -414.5t-330 -292.5t-426 -104zM1556 1262
q201 0 355 149q153 150 153 350q0 201 -153.5 352.5t-354.5 151.5h-557v-1003h557z" />
    <glyph glyph-name="Eth" unicode="&#x420;" 
d="M1573 963h-574v-668h512q119 0 119 -90v-103q0 -102 -114 -102h-1168q-119 0 -119 98v99q0 98 115 98h320v1970h-312q-127 0 -127 86l4 8v103q0 98 119 98h1225q217 0 424 -100.5t332 -282.5t125 -403q0 -226 -125 -414.5t-330 -292.5t-426 -104zM1556 1262
q201 0 355 149q153 150 153 350q0 201 -153.5 352.5t-354.5 151.5h-557v-1003h557z" />
    <glyph glyph-name="Ntilde.0" unicode="&#xd1;" 
d="M2171 1671q-156 0 -156 209q0 188 -155.5 323.5t-434.5 135.5q-258 0 -442 -141.5t-278 -387.5q-95 -245 -95 -544q0 -258 106.5 -498t299 -385t426.5 -145q184 0 382.5 86t321.5 192q70 49 144 49h16q131 0 139 -106v-8q0 -86 -24 -95q-140 -180 -428 -295
q-289 -114 -568 -114h-8q-360 0 -633 178q-272 178 -413 485q-142 308 -142 668q0 356 145.5 669.5t420.5 499.5q274 187 639 187q184 0 323 -23q139 -22 275 -108q8 -4 12 -4q16 0 16 12q13 94 111 94h94q123 0 123 -147v-693q0 -94 -119 -94h-86h-12z" />
    <glyph glyph-name="Ntilde.0" unicode="&#x421;" 
d="M2171 1671q-156 0 -156 209q0 188 -155.5 323.5t-434.5 135.5q-258 0 -442 -141.5t-278 -387.5q-95 -245 -95 -544q0 -258 106.5 -498t299 -385t426.5 -145q184 0 382.5 86t321.5 192q70 49 144 49h16q131 0 139 -106v-8q0 -86 -24 -95q-140 -180 -428 -295
q-289 -114 -568 -114h-8q-360 0 -633 178q-272 178 -413 485q-142 308 -142 668q0 356 145.5 669.5t420.5 499.5q274 187 639 187q184 0 323 -23q139 -22 275 -108q8 -4 12 -4q16 0 16 12q13 94 111 94h94q123 0 123 -147v-693q0 -94 -119 -94h-86h-12z" />
    <glyph glyph-name="Ograve" unicode="&#xd2;" 
d="M238 2458q0 102 90 102h2023q90 0 90 -102l25 -906q0 -114 -115 -114h-82q-119 0 -119 114l-20 713h-623v-1970h484q110 0 110 -107v-82q0 -106 -102 -106h-1319q-102 0 -102 106v82q0 107 110 107h483v1970h-622l-21 -713q0 -114 -118 -114h-82q-115 0 -115 114z" />
    <glyph glyph-name="Ograve" unicode="&#x422;" 
d="M238 2458q0 102 90 102h2023q90 0 90 -102l25 -906q0 -114 -115 -114h-82q-119 0 -119 114l-20 713h-623v-1970h484q110 0 110 -107v-82q0 -106 -102 -106h-1319q-102 0 -102 106v82q0 107 110 107h483v1970h-622l-21 -713q0 -114 -118 -114h-82q-115 0 -115 114z" />
    <glyph glyph-name="Otilde.0" unicode="&#xd5;" 
d="M1339 1065l-548 -770h221q106 0 106 -111v-82q0 -102 -106 -102h-705q-106 0 -106 111v82q0 102 106 102h66l745 1012l-692 958h-57q-111 0 -111 115v82q0 98 111 98h622q111 0 111 -102v-82q0 -111 -111 -111h-143l491 -700l492 700h-143q-111 0 -111 111v82
q0 102 111 102h618q111 0 111 -98v-82q0 -115 -111 -115h-53l-692 -958l745 -1012h66q106 0 106 -102v-82q0 -111 -106 -111h-705q-106 0 -106 102v82q0 111 106 111h221z" />
    <glyph glyph-name="Otilde.0" unicode="&#x425;" 
d="M1339 1065l-548 -770h221q106 0 106 -111v-82q0 -102 -106 -102h-705q-106 0 -106 111v82q0 102 106 102h66l745 1012l-692 958h-57q-111 0 -111 115v82q0 98 111 98h622q111 0 111 -102v-82q0 -111 -111 -111h-143l491 -700l492 700h-143q-111 0 -111 111v82
q0 102 111 102h618q111 0 111 -98v-82q0 -115 -111 -115h-53l-692 -958l745 -1012h66q106 0 106 -102v-82q0 -111 -106 -111h-705q-106 0 -106 102v82q0 111 106 111h221z" />
    <glyph glyph-name="agrave.0" unicode="&#xe0;" 
d="M594 618q0 -159 137 -251.5t305 -92.5q185 0 424 119q240 119 289 303v279q-180 74 -365 74h-98q-270 0 -481 -97q-211 -96 -211 -334zM1786 254l-25 25q-237 -205 -401 -263q-164 -57 -397 -57h-41q-312 0 -506 182q-195 183 -195 473v9q0 155 84 317t311 277
q228 114 617 114q123 0 321 -24q199 -25 199 -37v86q0 221 -156 313q-155 92 -315 92h-8q-213 0 -389 -90t-258 -90q-123 0 -148 102q-12 25 -12 62q0 57 37 98q176 127 346 162t407 35h58q254 0 430 -76t262 -217t86 -326v-1097h242q110 0 110 -103v-110q0 -111 -110 -111
h-434q-119 0 -119 168z" />
    <glyph glyph-name="agrave.0" unicode="&#x430;" 
d="M594 618q0 -159 137 -251.5t305 -92.5q185 0 424 119q240 119 289 303v279q-180 74 -365 74h-98q-270 0 -481 -97q-211 -96 -211 -334zM1786 254l-25 25q-237 -205 -401 -263q-164 -57 -397 -57h-41q-312 0 -506 182q-195 183 -195 473v9q0 155 84 317t311 277
q228 114 617 114q123 0 321 -24q199 -25 199 -37v86q0 221 -156 313q-155 92 -315 92h-8q-213 0 -389 -90t-258 -90q-123 0 -148 102q-12 25 -12 62q0 57 37 98q176 127 346 162t407 35h58q254 0 430 -76t262 -217t86 -326v-1097h242q110 0 110 -103v-110q0 -111 -110 -111
h-434q-119 0 -119 168z" />
    <glyph glyph-name="aring.0" unicode="&#xe5;" 
d="M1327 -41h-41q-254 0 -491.5 92t-393.5 322q-155 229 -155 602q0 274 108 518q109 244 361 395q252 152 641 152q405 0 647 -168t334 -371t92 -317v-160q0 -135 -143 -135h-1672v-37q0 -78 43 -209t213 -256t502 -125q209 0 496 131q291 131 409 131h25q115 -4 115 -106
v-62q0 -90 -111 -147q-328 -172 -512 -211t-467 -39zM2032 1184v49q0 151 -179 332q-178 180 -469 180h-12q-393 0 -567 -199q-174 -198 -174 -321v-41h1401z" />
    <glyph glyph-name="aring.0" unicode="&#x435;" 
d="M1327 -41h-41q-254 0 -491.5 92t-393.5 322q-155 229 -155 602q0 274 108 518q109 244 361 395q252 152 641 152q405 0 647 -168t334 -371t92 -317v-160q0 -135 -143 -135h-1672v-37q0 -78 43 -209t213 -256t502 -125q209 0 496 131q291 131 409 131h25q115 -4 115 -106
v-62q0 -90 -111 -147q-328 -172 -512 -211t-467 -39zM2032 1184v49q0 151 -179 332q-178 180 -469 180h-12q-393 0 -567 -199q-174 -198 -174 -321v-41h1401z" />
    <glyph glyph-name="icircumflex.0" unicode="&#xee;" 
d="M209 995q0 246 110 488q111 241 367 399t657 158q398 0 652 -160t364 -399q111 -240 111 -477v-9q0 -295 -129 -530.5t-385 -370.5t-608 -135q-373 0 -629 135t-381 370.5t-129 530.5zM578 1008q0 -217 94 -392q94 -174 268 -268t403 -94q226 0 400 94t266 268
q92 175 92 392q0 196 -94 366t-268 270.5t-396 100.5h-12q-229 0 -401 -96.5t-262 -266.5t-90 -374z" />
    <glyph glyph-name="icircumflex.0" unicode="&#x43e;" 
d="M209 995q0 246 110 488q111 241 367 399t657 158q398 0 652 -160t364 -399q111 -240 111 -477v-9q0 -295 -129 -530.5t-385 -370.5t-608 -135q-373 0 -629 135t-381 370.5t-129 530.5zM578 1008q0 -217 94 -392q94 -174 268 -268t403 -94q226 0 400 94t266 268
q92 175 92 392q0 196 -94 366t-268 270.5t-396 100.5h-12q-229 0 -401 -96.5t-262 -266.5t-90 -374z" />
    <glyph glyph-name="eth" unicode="&#xf0;" 
d="M279 -561h184v2261h-197q-102 0 -102 106v86q0 107 110 107h471q54 0 54 -62v-208l12 -13q82 111 268 201q187 90 408 90q282 0 518 -129t371 -360.5t135 -518.5v-12q0 -328 -135 -551t-369 -332q-233 -108 -516 -108q-197 0 -406 96q-208 96 -274 207l-12 -25v-835h573
q107 0 107 -107v-86q0 -102 -115 -102h-1094q-106 0 -106 102v86q0 107 115 107zM1462 1688q-299 0 -489.5 -197t-190.5 -475q0 -213 88 -375t246 -246t359 -84q303 0 485 192.5t182 487.5v13q-4 307 -196 495q-193 189 -484 189z" />
    <glyph glyph-name="eth" unicode="&#x440;" 
d="M279 -561h184v2261h-197q-102 0 -102 106v86q0 107 110 107h471q54 0 54 -62v-208l12 -13q82 111 268 201q187 90 408 90q282 0 518 -129t371 -360.5t135 -518.5v-12q0 -328 -135 -551t-369 -332q-233 -108 -516 -108q-197 0 -406 96q-208 96 -274 207l-12 -25v-835h573
q107 0 107 -107v-86q0 -102 -115 -102h-1094q-106 0 -106 102v86q0 107 115 107zM1462 1688q-299 0 -489.5 -197t-190.5 -475q0 -213 88 -375t246 -246t359 -84q303 0 485 192.5t182 487.5v13q-4 307 -196 495q-193 189 -484 189z" />
    <glyph glyph-name="ntilde.0" unicode="&#xf1;" 
d="M2154 618q5 0 33 5q33 4 58 4q82 0 118 -62q25 -24 25 -73q0 -62 -66 -156q-127 -135 -380.5 -256t-602.5 -121q-274 0 -518 125q-243 125 -389 358q-145 234 -145 537q0 287 123 530q122 244 366 387q244 144 580 144q184 0 341.5 -35t346.5 -141v49q0 98 123 98h86
q119 0 119 -131v-573q0 -107 -86 -107h-144q-57 0 -82 82q-114 205 -266 319.5t-401 114.5q-201 0 -371 -94t-268.5 -260t-98.5 -367q0 -184 88 -352t252 -266t369 -98q201 0 381 73q180 74 348 238z" />
    <glyph glyph-name="ntilde.0" unicode="&#x441;" 
d="M2154 618q5 0 33 5q33 4 58 4q82 0 118 -62q25 -24 25 -73q0 -62 -66 -156q-127 -135 -380.5 -256t-602.5 -121q-274 0 -518 125q-243 125 -389 358q-145 234 -145 537q0 287 123 530q122 244 366 387q244 144 580 144q184 0 341.5 -35t346.5 -141v49q0 98 123 98h86
q119 0 119 -131v-573q0 -107 -86 -107h-144q-57 0 -82 82q-114 205 -266 319.5t-401 114.5q-201 0 -371 -94t-268.5 -260t-98.5 -367q0 -184 88 -352t252 -266t369 -98q201 0 381 73q180 74 348 238z" />
    <glyph glyph-name="otilde.0" unicode="&#xf5;" 
d="M336 1999h708q111 0 111 -111v-86q0 -102 -111 -102h-135l459 -459l442 459h-176q-110 0 -110 102v86q0 111 110 111h713q107 0 107 -111v-86q0 -102 -115 -102h-168l-615 -656l750 -749h90q103 0 103 -107v-82q0 -106 -111 -106h-713q-110 0 -110 106v82q0 107 110 107
h213l-536 528l-496 -528h176q111 0 111 -107v-82q0 -106 -111 -106h-745q-111 0 -111 102v82q0 111 111 111h168l700 725l-680 680h-139q-111 0 -111 102v86q0 111 111 111z" />
    <glyph glyph-name="otilde.0" unicode="&#x445;" 
d="M336 1999h708q111 0 111 -111v-86q0 -102 -111 -102h-135l459 -459l442 459h-176q-110 0 -110 102v86q0 111 110 111h713q107 0 107 -111v-86q0 -102 -115 -102h-168l-615 -656l750 -749h90q103 0 103 -107v-82q0 -106 -111 -106h-713q-110 0 -110 106v82q0 107 110 107
h213l-536 528l-496 -528h176q111 0 111 -107v-82q0 -106 -111 -106h-745q-111 0 -111 102v82q0 111 111 111h168l700 725l-680 680h-139q-111 0 -111 102v86q0 111 111 111z" />
  </font>
</defs>
</svg>
